<svg width="620" height="24" viewBox="0 0 620 24" fill="none" xmlns="http://www.w3.org/2000/svg">
<path d="M612.59 8.29504L608 12.875L603.41 8.29504L602 9.70504L608 15.705L614 9.70504L612.59 8.29504Z" fill="#8B96A5"/>
<path d="M560.278 18V6.36364H562.034V11.4205H567.835V6.36364H569.597V18H567.835V12.9261H562.034V18H560.278ZM575.778 18.1761C574.919 18.1761 574.178 17.9924 573.557 17.625C572.939 17.2538 572.462 16.733 572.125 16.0625C571.792 15.3883 571.625 14.5985 571.625 13.6932C571.625 12.7992 571.792 12.0114 572.125 11.3295C572.462 10.6477 572.932 10.1155 573.534 9.73295C574.14 9.35038 574.848 9.15909 575.659 9.15909C576.152 9.15909 576.629 9.24053 577.091 9.40341C577.553 9.56629 577.968 9.82197 578.335 10.1705C578.703 10.5189 578.992 10.9716 579.205 11.5284C579.417 12.0814 579.523 12.7538 579.523 13.5455V14.1477H572.585V12.875H577.858C577.858 12.428 577.767 12.0322 577.585 11.6875C577.403 11.339 577.148 11.0644 576.818 10.8636C576.492 10.6629 576.11 10.5625 575.67 10.5625C575.193 10.5625 574.777 10.6799 574.42 10.9148C574.068 11.1458 573.795 11.4489 573.602 11.8239C573.413 12.1951 573.318 12.5985 573.318 13.0341V14.0284C573.318 14.6117 573.42 15.108 573.625 15.517C573.833 15.9261 574.123 16.2386 574.494 16.4545C574.866 16.6667 575.299 16.7727 575.795 16.7727C576.117 16.7727 576.411 16.7273 576.676 16.6364C576.941 16.5417 577.17 16.4015 577.364 16.2159C577.557 16.0303 577.705 15.8011 577.807 15.5284L579.415 15.8182C579.286 16.2917 579.055 16.7064 578.722 17.0625C578.392 17.4148 577.977 17.6894 577.477 17.8864C576.981 18.0795 576.415 18.1761 575.778 18.1761ZM583.107 6.36364V18H581.408V6.36364H583.107ZM585.392 21.2727V9.27273H587.051V10.6875H587.193C587.292 10.5057 587.434 10.2955 587.619 10.0568C587.805 9.81818 588.063 9.60985 588.392 9.43182C588.722 9.25 589.157 9.15909 589.699 9.15909C590.403 9.15909 591.032 9.33712 591.585 9.69318C592.138 10.0492 592.572 10.5625 592.886 11.233C593.205 11.9034 593.364 12.7102 593.364 13.6534C593.364 14.5966 593.206 15.4053 592.892 16.0795C592.578 16.75 592.146 17.267 591.597 17.6307C591.047 17.9905 590.42 18.1705 589.716 18.1705C589.186 18.1705 588.752 18.0814 588.415 17.9034C588.081 17.7254 587.82 17.517 587.631 17.2784C587.441 17.0398 587.295 16.8277 587.193 16.642H587.091V21.2727H585.392ZM587.057 13.6364C587.057 14.25 587.146 14.7879 587.324 15.25C587.502 15.7121 587.759 16.0739 588.097 16.3352C588.434 16.5928 588.847 16.7216 589.335 16.7216C589.843 16.7216 590.267 16.5871 590.608 16.3182C590.949 16.0455 591.206 15.6761 591.381 15.2102C591.559 14.7443 591.648 14.2197 591.648 13.6364C591.648 13.0606 591.561 12.5436 591.386 12.0852C591.216 11.6269 590.958 11.2652 590.614 11C590.273 10.7348 589.847 10.6023 589.335 10.6023C588.843 10.6023 588.426 10.7292 588.085 10.983C587.748 11.2367 587.492 11.5909 587.318 12.0455C587.144 12.5 587.057 13.0303 587.057 13.6364Z" fill="#1C1C1C"/>
<path d="M451.278 6.36364H453.409L457.114 15.4091H457.25L460.955 6.36364H463.085V18H461.415V9.57955H461.307L457.875 17.983H456.489L453.057 9.57386H452.949V18H451.278V6.36364ZM469.263 18.1761C468.403 18.1761 467.662 17.9924 467.041 17.625C466.424 17.2538 465.946 16.733 465.609 16.0625C465.276 15.3883 465.109 14.5985 465.109 13.6932C465.109 12.7992 465.276 12.0114 465.609 11.3295C465.946 10.6477 466.416 10.1155 467.018 9.73295C467.625 9.35038 468.333 9.15909 469.143 9.15909C469.636 9.15909 470.113 9.24053 470.575 9.40341C471.037 9.56629 471.452 9.82197 471.82 10.1705C472.187 10.5189 472.477 10.9716 472.689 11.5284C472.901 12.0814 473.007 12.7538 473.007 13.5455V14.1477H466.07V12.875H471.342C471.342 12.428 471.251 12.0322 471.07 11.6875C470.888 11.339 470.632 11.0644 470.303 10.8636C469.977 10.6629 469.594 10.5625 469.155 10.5625C468.678 10.5625 468.261 10.6799 467.905 10.9148C467.553 11.1458 467.28 11.4489 467.087 11.8239C466.897 12.1951 466.803 12.5985 466.803 13.0341V14.0284C466.803 14.6117 466.905 15.108 467.109 15.517C467.318 15.9261 467.607 16.2386 467.979 16.4545C468.35 16.6667 468.784 16.7727 469.28 16.7727C469.602 16.7727 469.895 16.7273 470.161 16.6364C470.426 16.5417 470.655 16.4015 470.848 16.2159C471.041 16.0303 471.189 15.8011 471.291 15.5284L472.899 15.8182C472.77 16.2917 472.539 16.7064 472.206 17.0625C471.876 17.4148 471.462 17.6894 470.962 17.8864C470.465 18.0795 469.899 18.1761 469.263 18.1761ZM476.591 12.8182V18H474.892V9.27273H476.523V10.6932H476.631C476.831 10.2311 477.146 9.85985 477.574 9.57955C478.006 9.29924 478.549 9.15909 479.205 9.15909C479.799 9.15909 480.32 9.28409 480.767 9.53409C481.214 9.7803 481.561 10.1477 481.807 10.6364C482.053 11.125 482.176 11.7292 482.176 12.4489V18H480.477V12.6534C480.477 12.0208 480.313 11.5265 479.983 11.1705C479.653 10.8106 479.201 10.6307 478.625 10.6307C478.231 10.6307 477.881 10.7159 477.574 10.8864C477.271 11.0568 477.03 11.3068 476.852 11.6364C476.678 11.9621 476.591 12.3561 476.591 12.8182ZM489.983 14.3807V9.27273H491.688V18H490.017V16.4886H489.926C489.725 16.9545 489.403 17.3428 488.96 17.6534C488.521 17.9602 487.973 18.1136 487.318 18.1136C486.758 18.1136 486.261 17.9905 485.83 17.7443C485.402 17.4943 485.064 17.125 484.818 16.6364C484.576 16.1477 484.455 15.5436 484.455 14.8239V9.27273H486.153V14.6193C486.153 15.214 486.318 15.6875 486.648 16.0398C486.977 16.392 487.405 16.5682 487.932 16.5682C488.25 16.5682 488.566 16.4886 488.881 16.3295C489.199 16.1705 489.462 15.9299 489.67 15.608C489.883 15.286 489.987 14.8769 489.983 14.3807ZM498.205 18V9.27273H499.903V18H498.205ZM499.062 7.92614C498.767 7.92614 498.513 7.82765 498.301 7.63068C498.093 7.42992 497.989 7.19129 497.989 6.91477C497.989 6.63447 498.093 6.39583 498.301 6.19886C498.513 5.99811 498.767 5.89773 499.062 5.89773C499.358 5.89773 499.61 5.99811 499.818 6.19886C500.03 6.39583 500.136 6.63447 500.136 6.91477C500.136 7.19129 500.03 7.42992 499.818 7.63068C499.61 7.82765 499.358 7.92614 499.062 7.92614ZM506.263 9.27273V10.6364H501.496V9.27273H506.263ZM502.774 7.18182H504.473V15.4375C504.473 15.767 504.522 16.0152 504.621 16.1818C504.719 16.3447 504.846 16.4564 505.001 16.517C505.161 16.5739 505.333 16.6023 505.518 16.6023C505.655 16.6023 505.774 16.5928 505.876 16.5739C505.979 16.5549 506.058 16.5398 506.115 16.5284L506.422 17.9318C506.323 17.9697 506.183 18.0076 506.001 18.0455C505.82 18.0871 505.592 18.1098 505.32 18.1136C504.873 18.1212 504.456 18.0417 504.07 17.875C503.683 17.7083 503.371 17.4508 503.132 17.1023C502.893 16.7538 502.774 16.3163 502.774 15.7898V7.18182ZM511.81 18.1761C510.95 18.1761 510.209 17.9924 509.588 17.625C508.971 17.2538 508.493 16.733 508.156 16.0625C507.823 15.3883 507.656 14.5985 507.656 13.6932C507.656 12.7992 507.823 12.0114 508.156 11.3295C508.493 10.6477 508.963 10.1155 509.565 9.73295C510.171 9.35038 510.88 9.15909 511.69 9.15909C512.183 9.15909 512.66 9.24053 513.122 9.40341C513.584 9.56629 513.999 9.82197 514.366 10.1705C514.734 10.5189 515.024 10.9716 515.236 11.5284C515.448 12.0814 515.554 12.7538 515.554 13.5455V14.1477H508.616V12.875H513.889C513.889 12.428 513.798 12.0322 513.616 11.6875C513.435 11.339 513.179 11.0644 512.849 10.8636C512.524 10.6629 512.141 10.5625 511.702 10.5625C511.224 10.5625 510.808 10.6799 510.452 10.9148C510.099 11.1458 509.827 11.4489 509.634 11.8239C509.444 12.1951 509.349 12.5985 509.349 13.0341V14.0284C509.349 14.6117 509.452 15.108 509.656 15.517C509.865 15.9261 510.154 16.2386 510.526 16.4545C510.897 16.6667 511.33 16.7727 511.827 16.7727C512.149 16.7727 512.442 16.7273 512.707 16.6364C512.973 16.5417 513.202 16.4015 513.395 16.2159C513.588 16.0303 513.736 15.8011 513.838 15.5284L515.446 15.8182C515.317 16.2917 515.086 16.7064 514.753 17.0625C514.423 17.4148 514.009 17.6894 513.509 17.8864C513.012 18.0795 512.446 18.1761 511.81 18.1761ZM517.439 18V9.27273H519.07V10.6932H519.178C519.359 10.2121 519.657 9.83712 520.07 9.56818C520.482 9.29545 520.977 9.15909 521.553 9.15909C522.136 9.15909 522.625 9.29545 523.018 9.56818C523.416 9.84091 523.71 10.2159 523.899 10.6932H523.99C524.198 10.2273 524.53 9.85606 524.984 9.57955C525.439 9.29924 525.981 9.15909 526.609 9.15909C527.401 9.15909 528.047 9.4072 528.547 9.90341C529.051 10.3996 529.303 11.1477 529.303 12.1477V18H527.604V12.3068C527.604 11.7159 527.443 11.2879 527.121 11.0227C526.799 10.7576 526.414 10.625 525.967 10.625C525.414 10.625 524.984 10.7955 524.678 11.1364C524.371 11.4735 524.217 11.9072 524.217 12.4375V18H522.524V12.1989C522.524 11.7254 522.376 11.3447 522.081 11.0568C521.786 10.7689 521.401 10.625 520.928 10.625C520.606 10.625 520.308 10.7102 520.036 10.8807C519.767 11.0473 519.549 11.2803 519.382 11.5795C519.219 11.8788 519.138 12.2254 519.138 12.6193V18H517.439Z" fill="#1C1C1C"/>
<path d="M360.278 18V6.36364H364.426C365.331 6.36364 366.081 6.52841 366.676 6.85795C367.271 7.1875 367.716 7.63826 368.011 8.21023C368.307 8.77841 368.455 9.41856 368.455 10.1307C368.455 10.8466 368.305 11.4905 368.006 12.0625C367.71 12.6307 367.263 13.0814 366.665 13.4148C366.07 13.7443 365.322 13.9091 364.42 13.9091H361.568V12.4205H364.261C364.833 12.4205 365.297 12.322 365.653 12.125C366.009 11.9242 366.271 11.6515 366.438 11.3068C366.604 10.9621 366.688 10.5701 366.688 10.1307C366.688 9.69129 366.604 9.30114 366.438 8.96023C366.271 8.61932 366.008 8.35227 365.648 8.15909C365.292 7.96591 364.822 7.86932 364.239 7.86932H362.034V18H360.278ZM370.376 18V9.27273H372.018V10.6591H372.109C372.268 10.1894 372.549 9.82008 372.95 9.55114C373.356 9.27841 373.814 9.14205 374.325 9.14205C374.431 9.14205 374.556 9.14583 374.7 9.15341C374.848 9.16098 374.964 9.17045 375.047 9.18182V10.8068C374.979 10.7879 374.857 10.767 374.683 10.7443C374.509 10.7178 374.335 10.7045 374.161 10.7045C373.759 10.7045 373.401 10.7898 373.087 10.9602C372.776 11.1269 372.53 11.3598 372.348 11.6591C372.166 11.9545 372.075 12.2917 372.075 12.6705V18H370.376ZM379.881 18.1761C379.063 18.1761 378.348 17.9886 377.739 17.6136C377.129 17.2386 376.655 16.714 376.318 16.0398C375.981 15.3655 375.812 14.5777 375.812 13.6761C375.812 12.7708 375.981 11.9792 376.318 11.3011C376.655 10.6231 377.129 10.0966 377.739 9.72159C378.348 9.34659 379.063 9.15909 379.881 9.15909C380.699 9.15909 381.413 9.34659 382.023 9.72159C382.633 10.0966 383.106 10.6231 383.443 11.3011C383.78 11.9792 383.949 12.7708 383.949 13.6761C383.949 14.5777 383.78 15.3655 383.443 16.0398C383.106 16.714 382.633 17.2386 382.023 17.6136C381.413 17.9886 380.699 18.1761 379.881 18.1761ZM379.886 16.75C380.417 16.75 380.856 16.6098 381.205 16.3295C381.553 16.0492 381.811 15.6761 381.977 15.2102C382.148 14.7443 382.233 14.2311 382.233 13.6705C382.233 13.1136 382.148 12.6023 381.977 12.1364C381.811 11.6667 381.553 11.2898 381.205 11.0057C380.856 10.7216 380.417 10.5795 379.886 10.5795C379.352 10.5795 378.909 10.7216 378.557 11.0057C378.208 11.2898 377.949 11.6667 377.778 12.1364C377.612 12.6023 377.528 13.1136 377.528 13.6705C377.528 14.2311 377.612 14.7443 377.778 15.2102C377.949 15.6761 378.208 16.0492 378.557 16.3295C378.909 16.6098 379.352 16.75 379.886 16.75ZM385.845 9.27273H387.544V18.5682C387.544 19.1515 387.438 19.6439 387.226 20.0455C387.018 20.447 386.707 20.7519 386.294 20.9602C385.885 21.1686 385.379 21.2727 384.777 21.2727C384.716 21.2727 384.66 21.2727 384.607 21.2727C384.55 21.2727 384.491 21.2708 384.43 21.267V19.8068C384.483 19.8068 384.531 19.8068 384.572 19.8068C384.61 19.8068 384.654 19.8068 384.703 19.8068C385.105 19.8068 385.394 19.6989 385.572 19.483C385.754 19.2708 385.845 18.9621 385.845 18.5568V9.27273ZM386.686 7.92614C386.391 7.92614 386.137 7.82765 385.925 7.63068C385.716 7.42992 385.612 7.19129 385.612 6.91477C385.612 6.63447 385.716 6.39583 385.925 6.19886C386.137 5.99811 386.391 5.89773 386.686 5.89773C386.982 5.89773 387.233 5.99811 387.442 6.19886C387.654 6.39583 387.76 6.63447 387.76 6.91477C387.76 7.19129 387.654 7.42992 387.442 7.63068C387.233 7.82765 386.982 7.92614 386.686 7.92614ZM393.591 18.1761C392.731 18.1761 391.991 17.9924 391.369 17.625C390.752 17.2538 390.275 16.733 389.938 16.0625C389.604 15.3883 389.438 14.5985 389.438 13.6932C389.438 12.7992 389.604 12.0114 389.938 11.3295C390.275 10.6477 390.744 10.1155 391.347 9.73295C391.953 9.35038 392.661 9.15909 393.472 9.15909C393.964 9.15909 394.441 9.24053 394.903 9.40341C395.366 9.56629 395.78 9.82197 396.148 10.1705C396.515 10.5189 396.805 10.9716 397.017 11.5284C397.229 12.0814 397.335 12.7538 397.335 13.5455V14.1477H390.398V12.875H395.67C395.67 12.428 395.58 12.0322 395.398 11.6875C395.216 11.339 394.96 11.0644 394.631 10.8636C394.305 10.6629 393.922 10.5625 393.483 10.5625C393.006 10.5625 392.589 10.6799 392.233 10.9148C391.881 11.1458 391.608 11.4489 391.415 11.8239C391.225 12.1951 391.131 12.5985 391.131 13.0341V14.0284C391.131 14.6117 391.233 15.108 391.438 15.517C391.646 15.9261 391.936 16.2386 392.307 16.4545C392.678 16.6667 393.112 16.7727 393.608 16.7727C393.93 16.7727 394.223 16.7273 394.489 16.6364C394.754 16.5417 394.983 16.4015 395.176 16.2159C395.369 16.0303 395.517 15.8011 395.619 15.5284L397.227 15.8182C397.098 16.2917 396.867 16.7064 396.534 17.0625C396.205 17.4148 395.79 17.6894 395.29 17.8864C394.794 18.0795 394.227 18.1761 393.591 18.1761ZM402.896 18.1761C402.052 18.1761 401.324 17.9848 400.714 17.6023C400.108 17.2159 399.643 16.6837 399.317 16.0057C398.991 15.3277 398.828 14.5511 398.828 13.6761C398.828 12.7898 398.995 12.0076 399.328 11.3295C399.661 10.6477 400.131 10.1155 400.737 9.73295C401.343 9.35038 402.057 9.15909 402.879 9.15909C403.542 9.15909 404.133 9.2822 404.652 9.52841C405.171 9.77083 405.589 10.1117 405.908 10.5511C406.23 10.9905 406.421 11.5038 406.482 12.0909H404.828C404.737 11.6818 404.529 11.3295 404.203 11.0341C403.881 10.7386 403.449 10.5909 402.908 10.5909C402.434 10.5909 402.019 10.7159 401.663 10.9659C401.311 11.2121 401.036 11.5644 400.839 12.0227C400.643 12.4773 400.544 13.0152 400.544 13.6364C400.544 14.2727 400.641 14.822 400.834 15.2841C401.027 15.7462 401.3 16.1042 401.652 16.358C402.008 16.6117 402.427 16.7386 402.908 16.7386C403.23 16.7386 403.521 16.6799 403.783 16.5625C404.048 16.4413 404.269 16.2689 404.447 16.0455C404.629 15.822 404.756 15.553 404.828 15.2386H406.482C406.421 15.803 406.237 16.3068 405.93 16.75C405.624 17.1932 405.213 17.5417 404.697 17.7955C404.186 18.0492 403.586 18.1761 402.896 18.1761ZM412.372 9.27273V10.6364H407.605V9.27273H412.372ZM408.884 7.18182H410.582V15.4375C410.582 15.767 410.632 16.0152 410.73 16.1818C410.829 16.3447 410.955 16.4564 411.111 16.517C411.27 16.5739 411.442 16.6023 411.628 16.6023C411.764 16.6023 411.884 16.5928 411.986 16.5739C412.088 16.5549 412.168 16.5398 412.224 16.5284L412.531 17.9318C412.433 17.9697 412.293 18.0076 412.111 18.0455C411.929 18.0871 411.702 18.1098 411.429 18.1136C410.982 18.1212 410.565 18.0417 410.179 17.875C409.793 17.7083 409.48 17.4508 409.241 17.1023C409.003 16.7538 408.884 16.3163 408.884 15.7898V7.18182ZM420.651 11.4034L419.111 11.6761C419.046 11.4792 418.944 11.2917 418.804 11.1136C418.668 10.9356 418.482 10.7898 418.247 10.6761C418.012 10.5625 417.719 10.5057 417.366 10.5057C416.885 10.5057 416.484 10.6136 416.162 10.8295C415.84 11.0417 415.679 11.3163 415.679 11.6534C415.679 11.9451 415.787 12.1799 416.003 12.358C416.219 12.536 416.567 12.6818 417.048 12.7955L418.435 13.1136C419.238 13.2992 419.836 13.5852 420.23 13.9716C420.624 14.358 420.821 14.8598 420.821 15.4773C420.821 16 420.67 16.4659 420.366 16.875C420.067 17.2803 419.649 17.5985 419.111 17.8295C418.577 18.0606 417.957 18.1761 417.253 18.1761C416.276 18.1761 415.478 17.9678 414.861 17.5511C414.243 17.1307 413.865 16.5341 413.724 15.7614L415.366 15.5114C415.469 15.9394 415.679 16.2633 415.997 16.483C416.315 16.6989 416.73 16.8068 417.241 16.8068C417.798 16.8068 418.243 16.6913 418.577 16.4602C418.91 16.2254 419.077 15.9394 419.077 15.6023C419.077 15.3295 418.974 15.1004 418.77 14.9148C418.569 14.7292 418.26 14.589 417.844 14.4943L416.366 14.1705C415.552 13.9848 414.95 13.6894 414.56 13.2841C414.173 12.8788 413.98 12.3655 413.98 11.7443C413.98 11.2292 414.124 10.7784 414.412 10.392C414.7 10.0057 415.098 9.70455 415.605 9.48864C416.113 9.26894 416.694 9.15909 417.349 9.15909C418.293 9.15909 419.035 9.36364 419.577 9.77273C420.118 10.178 420.476 10.7216 420.651 11.4034Z" fill="#1C1C1C"/>
<path d="M261.153 10.0398C261.044 9.69508 260.896 9.38636 260.71 9.11364C260.528 8.83712 260.311 8.60227 260.057 8.40909C259.803 8.21212 259.513 8.0625 259.188 7.96023C258.866 7.85795 258.511 7.80682 258.125 7.80682C257.47 7.80682 256.879 7.97538 256.352 8.3125C255.826 8.64962 255.409 9.14394 255.102 9.79545C254.799 10.4432 254.648 11.2367 254.648 12.1761C254.648 13.1193 254.801 13.9167 255.108 14.5682C255.415 15.2197 255.835 15.714 256.369 16.0511C256.903 16.3883 257.511 16.5568 258.193 16.5568C258.826 16.5568 259.377 16.428 259.847 16.1705C260.32 15.9129 260.686 15.5492 260.943 15.0795C261.205 14.6061 261.335 14.0492 261.335 13.4091L261.79 13.4943H258.46V12.0455H263.034V13.3693C263.034 14.3466 262.826 15.1951 262.409 15.9148C261.996 16.6307 261.424 17.1837 260.693 17.5739C259.966 17.964 259.133 18.1591 258.193 18.1591C257.14 18.1591 256.216 17.9167 255.42 17.4318C254.629 16.947 254.011 16.2595 253.568 15.3693C253.125 14.4754 252.903 13.4148 252.903 12.1875C252.903 11.2595 253.032 10.4261 253.29 9.6875C253.547 8.94886 253.909 8.32197 254.375 7.80682C254.845 7.28788 255.396 6.89205 256.028 6.61932C256.665 6.3428 257.36 6.20455 258.114 6.20455C258.742 6.20455 259.328 6.29735 259.869 6.48295C260.415 6.66856 260.9 6.93182 261.324 7.27273C261.752 7.61364 262.106 8.01894 262.386 8.48864C262.667 8.95455 262.856 9.47159 262.955 10.0398H261.153ZM265.673 18V9.27273H267.372V18H265.673ZM266.531 7.92614C266.236 7.92614 265.982 7.82765 265.77 7.63068C265.562 7.42992 265.457 7.19129 265.457 6.91477C265.457 6.63447 265.562 6.39583 265.77 6.19886C265.982 5.99811 266.236 5.89773 266.531 5.89773C266.827 5.89773 267.079 5.99811 267.287 6.19886C267.499 6.39583 267.605 6.63447 267.605 6.91477C267.605 7.19129 267.499 7.42992 267.287 7.63068C267.079 7.82765 266.827 7.92614 266.531 7.92614ZM273.811 9.27273V10.6364H268.879V9.27273H273.811ZM270.232 18V8.26136C270.232 7.71591 270.351 7.26326 270.589 6.90341C270.828 6.53977 271.144 6.26894 271.538 6.09091C271.932 5.90909 272.36 5.81818 272.822 5.81818C273.163 5.81818 273.455 5.84659 273.697 5.90341C273.94 5.95644 274.12 6.00568 274.237 6.05114L273.839 7.42614C273.76 7.40341 273.658 7.37689 273.533 7.34659C273.408 7.3125 273.256 7.29545 273.078 7.29545C272.665 7.29545 272.37 7.39773 272.192 7.60227C272.018 7.80682 271.93 8.10227 271.93 8.48864V18H270.232ZM279.638 9.27273V10.6364H274.871V9.27273H279.638ZM276.149 7.18182H277.848V15.4375C277.848 15.767 277.897 16.0152 277.996 16.1818C278.094 16.3447 278.221 16.4564 278.376 16.517C278.536 16.5739 278.708 16.6023 278.893 16.6023C279.03 16.6023 279.149 16.5928 279.251 16.5739C279.354 16.5549 279.433 16.5398 279.49 16.5284L279.797 17.9318C279.698 17.9697 279.558 18.0076 279.376 18.0455C279.195 18.0871 278.967 18.1098 278.695 18.1136C278.248 18.1212 277.831 18.0417 277.445 17.875C277.058 17.7083 276.746 17.4508 276.507 17.1023C276.268 16.7538 276.149 16.3163 276.149 15.7898V7.18182ZM285.888 18V6.36364H287.587V10.6875H287.689C287.787 10.5057 287.929 10.2955 288.115 10.0568C288.301 9.81818 288.558 9.60985 288.888 9.43182C289.217 9.25 289.653 9.15909 290.195 9.15909C290.899 9.15909 291.528 9.33712 292.081 9.69318C292.634 10.0492 293.068 10.5625 293.382 11.233C293.7 11.9034 293.859 12.7102 293.859 13.6534C293.859 14.5966 293.702 15.4053 293.388 16.0795C293.073 16.75 292.642 17.267 292.092 17.6307C291.543 17.9905 290.916 18.1705 290.212 18.1705C289.681 18.1705 289.248 18.0814 288.911 17.9034C288.577 17.7254 288.316 17.517 288.126 17.2784C287.937 17.0398 287.791 16.8277 287.689 16.642H287.547V18H285.888ZM287.553 13.6364C287.553 14.25 287.642 14.7879 287.82 15.25C287.998 15.7121 288.255 16.0739 288.592 16.3352C288.929 16.5928 289.342 16.7216 289.831 16.7216C290.339 16.7216 290.763 16.5871 291.104 16.3182C291.445 16.0455 291.702 15.6761 291.876 15.2102C292.054 14.7443 292.143 14.2197 292.143 13.6364C292.143 13.0606 292.056 12.5436 291.882 12.0852C291.712 11.6269 291.454 11.2652 291.109 11C290.768 10.7348 290.342 10.6023 289.831 10.6023C289.339 10.6023 288.922 10.7292 288.581 10.983C288.244 11.2367 287.988 11.5909 287.814 12.0455C287.64 12.5 287.553 13.0303 287.553 13.6364ZM299.443 18.1761C298.625 18.1761 297.911 17.9886 297.301 17.6136C296.691 17.2386 296.218 16.714 295.881 16.0398C295.544 15.3655 295.375 14.5777 295.375 13.6761C295.375 12.7708 295.544 11.9792 295.881 11.3011C296.218 10.6231 296.691 10.0966 297.301 9.72159C297.911 9.34659 298.625 9.15909 299.443 9.15909C300.261 9.15909 300.975 9.34659 301.585 9.72159C302.195 10.0966 302.669 10.6231 303.006 11.3011C303.343 11.9792 303.511 12.7708 303.511 13.6761C303.511 14.5777 303.343 15.3655 303.006 16.0398C302.669 16.714 302.195 17.2386 301.585 17.6136C300.975 17.9886 300.261 18.1761 299.443 18.1761ZM299.449 16.75C299.979 16.75 300.419 16.6098 300.767 16.3295C301.116 16.0492 301.373 15.6761 301.54 15.2102C301.71 14.7443 301.795 14.2311 301.795 13.6705C301.795 13.1136 301.71 12.6023 301.54 12.1364C301.373 11.6667 301.116 11.2898 300.767 11.0057C300.419 10.7216 299.979 10.5795 299.449 10.5795C298.915 10.5795 298.472 10.7216 298.119 11.0057C297.771 11.2898 297.511 11.6667 297.341 12.1364C297.174 12.6023 297.091 13.1136 297.091 13.6705C297.091 14.2311 297.174 14.7443 297.341 15.2102C297.511 15.6761 297.771 16.0492 298.119 16.3295C298.472 16.6098 298.915 16.75 299.449 16.75ZM306.405 9.27273L308.331 12.6705L310.274 9.27273H312.132L309.411 13.6364L312.155 18H310.297L308.331 14.7386L306.371 18H304.507L307.223 13.6364L304.541 9.27273H306.405ZM317.294 18.1761C316.434 18.1761 315.694 17.9924 315.072 17.625C314.455 17.2538 313.978 16.733 313.641 16.0625C313.307 15.3883 313.141 14.5985 313.141 13.6932C313.141 12.7992 313.307 12.0114 313.641 11.3295C313.978 10.6477 314.447 10.1155 315.05 9.73295C315.656 9.35038 316.364 9.15909 317.175 9.15909C317.667 9.15909 318.144 9.24053 318.607 9.40341C319.069 9.56629 319.483 9.82197 319.851 10.1705C320.218 10.5189 320.508 10.9716 320.72 11.5284C320.932 12.0814 321.038 12.7538 321.038 13.5455V14.1477H314.101V12.875H319.374C319.374 12.428 319.283 12.0322 319.101 11.6875C318.919 11.339 318.663 11.0644 318.334 10.8636C318.008 10.6629 317.625 10.5625 317.186 10.5625C316.709 10.5625 316.292 10.6799 315.936 10.9148C315.584 11.1458 315.311 11.4489 315.118 11.8239C314.929 12.1951 314.834 12.5985 314.834 13.0341V14.0284C314.834 14.6117 314.936 15.108 315.141 15.517C315.349 15.9261 315.639 16.2386 316.01 16.4545C316.381 16.6667 316.815 16.7727 317.311 16.7727C317.633 16.7727 317.927 16.7273 318.192 16.6364C318.457 16.5417 318.686 16.4015 318.879 16.2159C319.072 16.0303 319.22 15.8011 319.322 15.5284L320.93 15.8182C320.802 16.2917 320.571 16.7064 320.237 17.0625C319.908 17.4148 319.493 17.6894 318.993 17.8864C318.497 18.0795 317.93 18.1761 317.294 18.1761ZM329.463 11.4034L327.923 11.6761C327.859 11.4792 327.757 11.2917 327.616 11.1136C327.48 10.9356 327.295 10.7898 327.06 10.6761C326.825 10.5625 326.531 10.5057 326.179 10.5057C325.698 10.5057 325.296 10.6136 324.974 10.8295C324.652 11.0417 324.491 11.3163 324.491 11.6534C324.491 11.9451 324.599 12.1799 324.815 12.358C325.031 12.536 325.38 12.6818 325.861 12.7955L327.247 13.1136C328.05 13.2992 328.649 13.5852 329.043 13.9716C329.437 14.358 329.634 14.8598 329.634 15.4773C329.634 16 329.482 16.4659 329.179 16.875C328.88 17.2803 328.461 17.5985 327.923 17.8295C327.389 18.0606 326.77 18.1761 326.065 18.1761C325.088 18.1761 324.291 17.9678 323.673 17.5511C323.056 17.1307 322.677 16.5341 322.537 15.7614L324.179 15.5114C324.281 15.9394 324.491 16.2633 324.81 16.483C325.128 16.6989 325.543 16.8068 326.054 16.8068C326.611 16.8068 327.056 16.6913 327.389 16.4602C327.723 16.2254 327.889 15.9394 327.889 15.6023C327.889 15.3295 327.787 15.1004 327.582 14.9148C327.382 14.7292 327.073 14.589 326.656 14.4943L325.179 14.1705C324.365 13.9848 323.762 13.6894 323.372 13.2841C322.986 12.8788 322.793 12.3655 322.793 11.7443C322.793 11.2292 322.937 10.7784 323.224 10.392C323.512 10.0057 323.91 9.70455 324.418 9.48864C324.925 9.26894 325.507 9.15909 326.162 9.15909C327.105 9.15909 327.848 9.36364 328.389 9.77273C328.931 10.178 329.289 10.7216 329.463 11.4034Z" fill="#1C1C1C"/>
<path d="M148.278 18V6.36364H150.034V11.4205H155.835V6.36364H157.597V18H155.835V12.9261H150.034V18H148.278ZM163.693 18.1761C162.875 18.1761 162.161 17.9886 161.551 17.6136C160.941 17.2386 160.468 16.714 160.131 16.0398C159.794 15.3655 159.625 14.5777 159.625 13.6761C159.625 12.7708 159.794 11.9792 160.131 11.3011C160.468 10.6231 160.941 10.0966 161.551 9.72159C162.161 9.34659 162.875 9.15909 163.693 9.15909C164.511 9.15909 165.225 9.34659 165.835 9.72159C166.445 10.0966 166.919 10.6231 167.256 11.3011C167.593 11.9792 167.761 12.7708 167.761 13.6761C167.761 14.5777 167.593 15.3655 167.256 16.0398C166.919 16.714 166.445 17.2386 165.835 17.6136C165.225 17.9886 164.511 18.1761 163.693 18.1761ZM163.699 16.75C164.229 16.75 164.669 16.6098 165.017 16.3295C165.366 16.0492 165.623 15.6761 165.79 15.2102C165.96 14.7443 166.045 14.2311 166.045 13.6705C166.045 13.1136 165.96 12.6023 165.79 12.1364C165.623 11.6667 165.366 11.2898 165.017 11.0057C164.669 10.7216 164.229 10.5795 163.699 10.5795C163.165 10.5795 162.722 10.7216 162.369 11.0057C162.021 11.2898 161.761 11.6667 161.591 12.1364C161.424 12.6023 161.341 13.1136 161.341 13.6705C161.341 14.2311 161.424 14.7443 161.591 15.2102C161.761 15.6761 162.021 16.0492 162.369 16.3295C162.722 16.6098 163.165 16.75 163.699 16.75ZM173.732 9.27273V10.6364H168.964V9.27273H173.732ZM170.243 7.18182H171.942V15.4375C171.942 15.767 171.991 16.0152 172.089 16.1818C172.188 16.3447 172.315 16.4564 172.47 16.517C172.629 16.5739 172.802 16.6023 172.987 16.6023C173.124 16.6023 173.243 16.5928 173.345 16.5739C173.447 16.5549 173.527 16.5398 173.584 16.5284L173.891 17.9318C173.792 17.9697 173.652 18.0076 173.47 18.0455C173.288 18.0871 173.061 18.1098 172.788 18.1136C172.341 18.1212 171.925 18.0417 171.538 17.875C171.152 17.7083 170.839 17.4508 170.601 17.1023C170.362 16.7538 170.243 16.3163 170.243 15.7898V7.18182ZM183.521 18.1761C182.703 18.1761 181.989 17.9886 181.379 17.6136C180.769 17.2386 180.296 16.714 179.959 16.0398C179.622 15.3655 179.453 14.5777 179.453 13.6761C179.453 12.7708 179.622 11.9792 179.959 11.3011C180.296 10.6231 180.769 10.0966 181.379 9.72159C181.989 9.34659 182.703 9.15909 183.521 9.15909C184.339 9.15909 185.054 9.34659 185.663 9.72159C186.273 10.0966 186.747 10.6231 187.084 11.3011C187.421 11.9792 187.589 12.7708 187.589 13.6761C187.589 14.5777 187.421 15.3655 187.084 16.0398C186.747 16.714 186.273 17.2386 185.663 17.6136C185.054 17.9886 184.339 18.1761 183.521 18.1761ZM183.527 16.75C184.057 16.75 184.497 16.6098 184.845 16.3295C185.194 16.0492 185.451 15.6761 185.618 15.2102C185.788 14.7443 185.874 14.2311 185.874 13.6705C185.874 13.1136 185.788 12.6023 185.618 12.1364C185.451 11.6667 185.194 11.2898 184.845 11.0057C184.497 10.7216 184.057 10.5795 183.527 10.5795C182.993 10.5795 182.55 10.7216 182.197 11.0057C181.849 11.2898 181.589 11.6667 181.419 12.1364C181.252 12.6023 181.169 13.1136 181.169 13.6705C181.169 14.2311 181.252 14.7443 181.419 15.2102C181.589 15.6761 181.849 16.0492 182.197 16.3295C182.55 16.6098 182.993 16.75 183.527 16.75ZM193.639 9.27273V10.6364H188.707V9.27273H193.639ZM190.06 18V8.26136C190.06 7.71591 190.179 7.26326 190.418 6.90341C190.656 6.53977 190.973 6.26894 191.366 6.09091C191.76 5.90909 192.188 5.81818 192.651 5.81818C192.991 5.81818 193.283 5.84659 193.526 5.90341C193.768 5.95644 193.948 6.00568 194.065 6.05114L193.668 7.42614C193.588 7.40341 193.486 7.37689 193.361 7.34659C193.236 7.3125 193.084 7.29545 192.906 7.29545C192.493 7.29545 192.198 7.39773 192.02 7.60227C191.846 7.80682 191.759 8.10227 191.759 8.48864V18H190.06ZM199.545 9.27273V10.6364H194.614V9.27273H199.545ZM195.966 18V8.26136C195.966 7.71591 196.085 7.26326 196.324 6.90341C196.563 6.53977 196.879 6.26894 197.273 6.09091C197.667 5.90909 198.095 5.81818 198.557 5.81818C198.898 5.81818 199.189 5.84659 199.432 5.90341C199.674 5.95644 199.854 6.00568 199.972 6.05114L199.574 7.42614C199.494 7.40341 199.392 7.37689 199.267 7.34659C199.142 7.3125 198.991 7.29545 198.812 7.29545C198.4 7.29545 198.104 7.39773 197.926 7.60227C197.752 7.80682 197.665 8.10227 197.665 8.48864V18H195.966ZM204.716 18.1761C203.856 18.1761 203.116 17.9924 202.494 17.625C201.877 17.2538 201.4 16.733 201.062 16.0625C200.729 15.3883 200.562 14.5985 200.562 13.6932C200.562 12.7992 200.729 12.0114 201.062 11.3295C201.4 10.6477 201.869 10.1155 202.472 9.73295C203.078 9.35038 203.786 9.15909 204.597 9.15909C205.089 9.15909 205.566 9.24053 206.028 9.40341C206.491 9.56629 206.905 9.82197 207.273 10.1705C207.64 10.5189 207.93 10.9716 208.142 11.5284C208.354 12.0814 208.46 12.7538 208.46 13.5455V14.1477H201.523V12.875H206.795C206.795 12.428 206.705 12.0322 206.523 11.6875C206.341 11.339 206.085 11.0644 205.756 10.8636C205.43 10.6629 205.047 10.5625 204.608 10.5625C204.131 10.5625 203.714 10.6799 203.358 10.9148C203.006 11.1458 202.733 11.4489 202.54 11.8239C202.35 12.1951 202.256 12.5985 202.256 13.0341V14.0284C202.256 14.6117 202.358 15.108 202.562 15.517C202.771 15.9261 203.061 16.2386 203.432 16.4545C203.803 16.6667 204.237 16.7727 204.733 16.7727C205.055 16.7727 205.348 16.7273 205.614 16.6364C205.879 16.5417 206.108 16.4015 206.301 16.2159C206.494 16.0303 206.642 15.8011 206.744 15.5284L208.352 15.8182C208.223 16.2917 207.992 16.7064 207.659 17.0625C207.33 17.4148 206.915 17.6894 206.415 17.8864C205.919 18.0795 205.352 18.1761 204.716 18.1761ZM210.345 18V9.27273H211.987V10.6591H212.078C212.237 10.1894 212.518 9.82008 212.919 9.55114C213.324 9.27841 213.783 9.14205 214.294 9.14205C214.4 9.14205 214.525 9.14583 214.669 9.15341C214.817 9.16098 214.932 9.17045 215.016 9.18182V10.8068C214.947 10.7879 214.826 10.767 214.652 10.7443C214.478 10.7178 214.304 10.7045 214.129 10.7045C213.728 10.7045 213.37 10.7898 213.055 10.9602C212.745 11.1269 212.499 11.3598 212.317 11.6591C212.135 11.9545 212.044 12.2917 212.044 12.6705V18H210.345ZM223.026 11.4034L221.486 11.6761C221.421 11.4792 221.319 11.2917 221.179 11.1136C221.043 10.9356 220.857 10.7898 220.622 10.6761C220.387 10.5625 220.094 10.5057 219.741 10.5057C219.26 10.5057 218.859 10.6136 218.537 10.8295C218.215 11.0417 218.054 11.3163 218.054 11.6534C218.054 11.9451 218.162 12.1799 218.378 12.358C218.594 12.536 218.942 12.6818 219.423 12.7955L220.81 13.1136C221.613 13.2992 222.211 13.5852 222.605 13.9716C222.999 14.358 223.196 14.8598 223.196 15.4773C223.196 16 223.045 16.4659 222.741 16.875C222.442 17.2803 222.024 17.5985 221.486 17.8295C220.952 18.0606 220.332 18.1761 219.628 18.1761C218.651 18.1761 217.853 17.9678 217.236 17.5511C216.618 17.1307 216.24 16.5341 216.099 15.7614L217.741 15.5114C217.844 15.9394 218.054 16.2633 218.372 16.483C218.69 16.6989 219.105 16.8068 219.616 16.8068C220.173 16.8068 220.618 16.6913 220.952 16.4602C221.285 16.2254 221.452 15.9394 221.452 15.6023C221.452 15.3295 221.349 15.1004 221.145 14.9148C220.944 14.7292 220.635 14.589 220.219 14.4943L218.741 14.1705C217.927 13.9848 217.325 13.6894 216.935 13.2841C216.548 12.8788 216.355 12.3655 216.355 11.7443C216.355 11.2292 216.499 10.7784 216.787 10.392C217.075 10.0057 217.473 9.70455 217.98 9.48864C218.488 9.26894 219.069 9.15909 219.724 9.15909C220.668 9.15909 221.41 9.36364 221.952 9.77273C222.493 10.178 222.851 10.7216 223.026 11.4034Z" fill="#1C1C1C"/>
<path d="M32.2614 18H30.3977L34.5852 6.36364H36.6136L40.8011 18H38.9375L35.6477 8.47727H35.5568L32.2614 18ZM32.5739 13.4432H38.6193V14.9205H32.5739V13.4432ZM44.044 6.36364V18H42.3452V6.36364H44.044ZM48.0284 6.36364V18H46.3295V6.36364H48.0284ZM58.2244 18.1761C57.3797 18.1761 56.6525 17.9848 56.0426 17.6023C55.4366 17.2159 54.9706 16.6837 54.6449 16.0057C54.3191 15.3277 54.1562 14.5511 54.1562 13.6761C54.1562 12.7898 54.3229 12.0076 54.6562 11.3295C54.9896 10.6477 55.4593 10.1155 56.0653 9.73295C56.6714 9.35038 57.3854 9.15909 58.2074 9.15909C58.8703 9.15909 59.4612 9.2822 59.9801 9.52841C60.4991 9.77083 60.9176 10.1117 61.2358 10.5511C61.5578 10.9905 61.7491 11.5038 61.8097 12.0909H60.1562C60.0653 11.6818 59.857 11.3295 59.5312 11.0341C59.2093 10.7386 58.7775 10.5909 58.2358 10.5909C57.7623 10.5909 57.3475 10.7159 56.9915 10.9659C56.6392 11.2121 56.3646 11.5644 56.1676 12.0227C55.9706 12.4773 55.8722 13.0152 55.8722 13.6364C55.8722 14.2727 55.9688 14.822 56.1619 15.2841C56.3551 15.7462 56.6278 16.1042 56.9801 16.358C57.3362 16.6117 57.7547 16.7386 58.2358 16.7386C58.5578 16.7386 58.8494 16.6799 59.1108 16.5625C59.3759 16.4413 59.5975 16.2689 59.7756 16.0455C59.9574 15.822 60.0843 15.553 60.1562 15.2386H61.8097C61.7491 15.803 61.5653 16.3068 61.2585 16.75C60.9517 17.1932 60.5407 17.5417 60.0256 17.7955C59.5142 18.0492 58.9138 18.1761 58.2244 18.1761ZM66.1662 18.1932C65.6132 18.1932 65.1132 18.0909 64.6662 17.8864C64.2192 17.678 63.8651 17.3769 63.6037 16.983C63.3461 16.589 63.2173 16.1061 63.2173 15.5341C63.2173 15.0417 63.312 14.6364 63.5014 14.3182C63.6908 14 63.9465 13.7481 64.2685 13.5625C64.5904 13.3769 64.9503 13.2367 65.348 13.142C65.7457 13.0473 66.151 12.9754 66.5639 12.9261C67.0866 12.8655 67.5109 12.8163 67.8366 12.7784C68.1624 12.7367 68.3991 12.6705 68.5469 12.5795C68.6946 12.4886 68.7685 12.3409 68.7685 12.1364V12.0966C68.7685 11.6004 68.6283 11.2159 68.348 10.9432C68.0715 10.6705 67.6586 10.5341 67.1094 10.5341C66.5374 10.5341 66.0866 10.661 65.7571 10.9148C65.4313 11.1648 65.206 11.4432 65.081 11.75L63.4844 11.3864C63.6738 10.8561 63.9503 10.428 64.3139 10.1023C64.6813 9.77273 65.1037 9.53409 65.581 9.38636C66.0582 9.23485 66.5601 9.15909 67.0866 9.15909C67.4351 9.15909 67.8045 9.20076 68.1946 9.28409C68.5885 9.36364 68.956 9.51136 69.2969 9.72727C69.6416 9.94318 69.9238 10.2519 70.1435 10.6534C70.3632 11.0511 70.473 11.5682 70.473 12.2045V18H68.8139V16.8068H68.7457C68.6359 17.0265 68.4711 17.2424 68.2514 17.4545C68.0317 17.6667 67.7495 17.8428 67.4048 17.983C67.0601 18.1231 66.6473 18.1932 66.1662 18.1932ZM66.5355 16.8295C67.0052 16.8295 67.4067 16.7367 67.7401 16.5511C68.0772 16.3655 68.3329 16.1231 68.5071 15.8239C68.6851 15.5208 68.7741 15.197 68.7741 14.8523V13.7273C68.7135 13.7879 68.5961 13.8447 68.4219 13.8977C68.2514 13.947 68.0563 13.9905 67.8366 14.0284C67.617 14.0625 67.4029 14.0947 67.1946 14.125C66.9863 14.1515 66.812 14.1742 66.6719 14.1932C66.3423 14.2348 66.0412 14.3049 65.7685 14.4034C65.4995 14.5019 65.2836 14.6439 65.1207 14.8295C64.9616 15.0114 64.8821 15.2538 64.8821 15.5568C64.8821 15.9773 65.0374 16.2955 65.348 16.5114C65.6586 16.7235 66.0545 16.8295 66.5355 16.8295ZM76.8097 9.27273V10.6364H72.0426V9.27273H76.8097ZM73.321 7.18182H75.0199V15.4375C75.0199 15.767 75.0691 16.0152 75.1676 16.1818C75.2661 16.3447 75.393 16.4564 75.5483 16.517C75.7074 16.5739 75.8797 16.6023 76.0653 16.6023C76.2017 16.6023 76.321 16.5928 76.4233 16.5739C76.5256 16.5549 76.6051 16.5398 76.6619 16.5284L76.9688 17.9318C76.8703 17.9697 76.7301 18.0076 76.5483 18.0455C76.3665 18.0871 76.1392 18.1098 75.8665 18.1136C75.4195 18.1212 75.0028 18.0417 74.6165 17.875C74.2301 17.7083 73.9176 17.4508 73.679 17.1023C73.4403 16.7538 73.321 16.3163 73.321 15.7898V7.18182ZM82.3565 18.1761C81.4967 18.1761 80.7562 17.9924 80.1349 17.625C79.5175 17.2538 79.0402 16.733 78.7031 16.0625C78.3698 15.3883 78.2031 14.5985 78.2031 13.6932C78.2031 12.7992 78.3698 12.0114 78.7031 11.3295C79.0402 10.6477 79.5099 10.1155 80.1122 9.73295C80.7183 9.35038 81.4266 9.15909 82.2372 9.15909C82.7296 9.15909 83.2069 9.24053 83.669 9.40341C84.1312 9.56629 84.5459 9.82197 84.9134 10.1705C85.2808 10.5189 85.5705 10.9716 85.7827 11.5284C85.9948 12.0814 86.1009 12.7538 86.1009 13.5455V14.1477H79.1634V12.875H84.4361C84.4361 12.428 84.3452 12.0322 84.1634 11.6875C83.9815 11.339 83.7259 11.0644 83.3963 10.8636C83.0705 10.6629 82.688 10.5625 82.2486 10.5625C81.7713 10.5625 81.3546 10.6799 80.9986 10.9148C80.6463 11.1458 80.3736 11.4489 80.1804 11.8239C79.991 12.1951 79.8963 12.5985 79.8963 13.0341V14.0284C79.8963 14.6117 79.9986 15.108 80.2031 15.517C80.4115 15.9261 80.7012 16.2386 81.0724 16.4545C81.4437 16.6667 81.8774 16.7727 82.3736 16.7727C82.6955 16.7727 82.9891 16.7273 83.2543 16.6364C83.5194 16.5417 83.7486 16.4015 83.9418 16.2159C84.1349 16.0303 84.2827 15.8011 84.3849 15.5284L85.9929 15.8182C85.8641 16.2917 85.633 16.7064 85.2997 17.0625C84.9702 17.4148 84.5554 17.6894 84.0554 17.8864C83.5592 18.0795 82.9929 18.1761 82.3565 18.1761ZM91.6449 21.4545C90.9517 21.4545 90.3551 21.3636 89.8551 21.1818C89.3589 21 88.9536 20.7595 88.6392 20.4602C88.3248 20.161 88.09 19.8333 87.9347 19.4773L89.3949 18.875C89.4972 19.0417 89.6335 19.2178 89.804 19.4034C89.9782 19.5928 90.2131 19.7538 90.5085 19.8864C90.8078 20.0189 91.1922 20.0852 91.6619 20.0852C92.3059 20.0852 92.8381 19.928 93.2585 19.6136C93.679 19.303 93.8892 18.8068 93.8892 18.125V16.4091H93.7812C93.679 16.5947 93.5313 16.8011 93.3381 17.0284C93.1487 17.2557 92.8873 17.4527 92.554 17.6193C92.2206 17.786 91.7869 17.8693 91.2528 17.8693C90.5634 17.8693 89.9422 17.7083 89.3892 17.3864C88.84 17.0606 88.4044 16.5814 88.0824 15.9489C87.7642 15.3125 87.6051 14.5303 87.6051 13.6023C87.6051 12.6742 87.7623 11.8788 88.0767 11.2159C88.3949 10.553 88.8305 10.0455 89.3835 9.69318C89.9366 9.33712 90.5634 9.15909 91.2642 9.15909C91.8059 9.15909 92.2434 9.25 92.5767 9.43182C92.91 9.60985 93.1695 9.81818 93.3551 10.0568C93.5445 10.2955 93.6903 10.5057 93.7926 10.6875H93.9176V9.27273H95.5824V18.1932C95.5824 18.9432 95.4081 19.5587 95.0597 20.0398C94.7112 20.5208 94.2396 20.8769 93.6449 21.108C93.054 21.339 92.3873 21.4545 91.6449 21.4545ZM91.6278 16.4602C92.1165 16.4602 92.5294 16.3466 92.8665 16.1193C93.2074 15.8883 93.465 15.5587 93.6392 15.1307C93.8172 14.6989 93.9062 14.1818 93.9062 13.5795C93.9062 12.9924 93.8191 12.4754 93.6449 12.0284C93.4706 11.5814 93.215 11.233 92.8778 10.983C92.5407 10.7292 92.1241 10.6023 91.6278 10.6023C91.1165 10.6023 90.6903 10.7348 90.3494 11C90.0085 11.2614 89.7509 11.6174 89.5767 12.0682C89.4063 12.5189 89.321 13.0227 89.321 13.5795C89.321 14.1515 89.4081 14.6534 89.5824 15.0852C89.7566 15.517 90.0142 15.8542 90.3551 16.0966C90.6998 16.339 91.1241 16.4602 91.6278 16.4602ZM101.537 18.1761C100.719 18.1761 100.005 17.9886 99.3949 17.6136C98.785 17.2386 98.3116 16.714 97.9744 16.0398C97.6373 15.3655 97.4688 14.5777 97.4688 13.6761C97.4688 12.7708 97.6373 11.9792 97.9744 11.3011C98.3116 10.6231 98.785 10.0966 99.3949 9.72159C100.005 9.34659 100.719 9.15909 101.537 9.15909C102.355 9.15909 103.069 9.34659 103.679 9.72159C104.289 10.0966 104.762 10.6231 105.099 11.3011C105.437 11.9792 105.605 12.7708 105.605 13.6761C105.605 14.5777 105.437 15.3655 105.099 16.0398C104.762 16.714 104.289 17.2386 103.679 17.6136C103.069 17.9886 102.355 18.1761 101.537 18.1761ZM101.543 16.75C102.073 16.75 102.512 16.6098 102.861 16.3295C103.209 16.0492 103.467 15.6761 103.634 15.2102C103.804 14.7443 103.889 14.2311 103.889 13.6705C103.889 13.1136 103.804 12.6023 103.634 12.1364C103.467 11.6667 103.209 11.2898 102.861 11.0057C102.512 10.7216 102.073 10.5795 101.543 10.5795C101.009 10.5795 100.565 10.7216 100.213 11.0057C99.8646 11.2898 99.6051 11.6667 99.4347 12.1364C99.268 12.6023 99.1847 13.1136 99.1847 13.6705C99.1847 14.2311 99.268 14.7443 99.4347 15.2102C99.6051 15.6761 99.8646 16.0492 100.213 16.3295C100.565 16.6098 101.009 16.75 101.543 16.75ZM107.501 18V9.27273H109.143V10.6591H109.234C109.393 10.1894 109.674 9.82008 110.075 9.55114C110.481 9.27841 110.939 9.14205 111.45 9.14205C111.556 9.14205 111.681 9.14583 111.825 9.15341C111.973 9.16098 112.089 9.17045 112.172 9.18182V10.8068C112.104 10.7879 111.982 10.767 111.808 10.7443C111.634 10.7178 111.46 10.7045 111.286 10.7045C110.884 10.7045 110.526 10.7898 110.212 10.9602C109.901 11.1269 109.655 11.3598 109.473 11.6591C109.291 11.9545 109.2 12.2917 109.2 12.6705V18H107.501ZM114.982 21.2727C114.728 21.2727 114.497 21.2519 114.288 21.2102C114.08 21.1723 113.925 21.1307 113.822 21.0852L114.232 19.6932C114.542 19.7765 114.819 19.8125 115.061 19.8011C115.304 19.7898 115.518 19.6989 115.703 19.5284C115.893 19.358 116.059 19.0795 116.203 18.6932L116.413 18.1136L113.22 9.27273H115.038L117.249 16.0455H117.339L119.55 9.27273H121.374L117.777 19.1648C117.61 19.6193 117.398 20.0038 117.141 20.3182C116.883 20.6364 116.576 20.875 116.22 21.0341C115.864 21.1932 115.451 21.2727 114.982 21.2727Z" fill="#1C1C1C"/>
<path d="M3 18H21V16H3V18ZM3 13H21V11H3V13ZM3 6V8H21V6H3Z" fill="#1C1C1C"/>
</svg>
