<svg width="124" height="24" viewBox="0 0 124 24" fill="none" xmlns="http://www.w3.org/2000/svg">
<path d="M1.27841 19V7.36364H8.57386V8.875H3.03409V12.4205H8.19318V13.9261H3.03409V17.4886H8.64205V19H1.27841ZM12.4815 13.8182V19H10.7827V10.2727H12.4134V11.6932H12.5213C12.7221 11.2311 13.0365 10.8598 13.4645 10.5795C13.8963 10.2992 14.4399 10.1591 15.0952 10.1591C15.6899 10.1591 16.2107 10.2841 16.6577 10.5341C17.1046 10.7803 17.4512 11.1477 17.6974 11.6364C17.9437 12.125 18.0668 12.7292 18.0668 13.4489V19H16.3679V13.6534C16.3679 13.0208 16.2031 12.5265 15.8736 12.1705C15.544 11.8106 15.0914 11.6307 14.5156 11.6307C14.1217 11.6307 13.7713 11.7159 13.4645 11.8864C13.1615 12.0568 12.9209 12.3068 12.7429 12.6364C12.5687 12.9621 12.4815 13.3561 12.4815 13.8182ZM24.0043 22.4545C23.3111 22.4545 22.7145 22.3636 22.2145 22.1818C21.7183 22 21.313 21.7595 20.9986 21.4602C20.6842 21.161 20.4493 20.8333 20.294 20.4773L21.7543 19.875C21.8565 20.0417 21.9929 20.2178 22.1634 20.4034C22.3376 20.5928 22.5724 20.7538 22.8679 20.8864C23.1671 21.0189 23.5516 21.0852 24.0213 21.0852C24.6652 21.0852 25.1974 20.928 25.6179 20.6136C26.0384 20.303 26.2486 19.8068 26.2486 19.125V17.4091H26.1406C26.0384 17.5947 25.8906 17.8011 25.6974 18.0284C25.508 18.2557 25.2467 18.4527 24.9134 18.6193C24.58 18.786 24.1463 18.8693 23.6122 18.8693C22.9228 18.8693 22.3016 18.7083 21.7486 18.3864C21.1993 18.0606 20.7637 17.5814 20.4418 16.9489C20.1236 16.3125 19.9645 15.5303 19.9645 14.6023C19.9645 13.6742 20.1217 12.8788 20.4361 12.2159C20.7543 11.553 21.1899 11.0455 21.7429 10.6932C22.2959 10.3371 22.9228 10.1591 23.6236 10.1591C24.1652 10.1591 24.6027 10.25 24.9361 10.4318C25.2694 10.6098 25.5289 10.8182 25.7145 11.0568C25.9039 11.2955 26.0497 11.5057 26.152 11.6875H26.277V10.2727H27.9418V19.1932C27.9418 19.9432 27.7675 20.5587 27.419 21.0398C27.0705 21.5208 26.599 21.8769 26.0043 22.108C25.4134 22.339 24.7467 22.4545 24.0043 22.4545ZM23.9872 17.4602C24.4759 17.4602 24.8887 17.3466 25.2259 17.1193C25.5668 16.8883 25.8243 16.5587 25.9986 16.1307C26.1766 15.6989 26.2656 15.1818 26.2656 14.5795C26.2656 13.9924 26.1785 13.4754 26.0043 13.0284C25.83 12.5814 25.5743 12.233 25.2372 11.983C24.9001 11.7292 24.4834 11.6023 23.9872 11.6023C23.4759 11.6023 23.0497 11.7348 22.7088 12C22.3679 12.2614 22.1103 12.6174 21.9361 13.0682C21.7656 13.5189 21.6804 14.0227 21.6804 14.5795C21.6804 15.1515 21.7675 15.6534 21.9418 16.0852C22.116 16.517 22.3736 16.8542 22.7145 17.0966C23.0592 17.339 23.4834 17.4602 23.9872 17.4602ZM31.919 7.36364V19H30.2202V7.36364H31.919ZM34.2045 19V10.2727H35.9034V19H34.2045ZM35.0625 8.92614C34.767 8.92614 34.5133 8.82765 34.3011 8.63068C34.0928 8.42992 33.9886 8.19129 33.9886 7.91477C33.9886 7.63447 34.0928 7.39583 34.3011 7.19886C34.5133 6.99811 34.767 6.89773 35.0625 6.89773C35.358 6.89773 35.6098 6.99811 35.8182 7.19886C36.0303 7.39583 36.1364 7.63447 36.1364 7.91477C36.1364 8.19129 36.0303 8.42992 35.8182 8.63068C35.6098 8.82765 35.358 8.92614 35.0625 8.92614ZM44.7287 12.4034L43.1889 12.6761C43.1245 12.4792 43.0223 12.2917 42.8821 12.1136C42.7457 11.9356 42.5601 11.7898 42.3253 11.6761C42.0904 11.5625 41.7969 11.5057 41.4446 11.5057C40.9635 11.5057 40.562 11.6136 40.2401 11.8295C39.9181 12.0417 39.7571 12.3163 39.7571 12.6534C39.7571 12.9451 39.8651 13.1799 40.081 13.358C40.2969 13.536 40.6454 13.6818 41.1264 13.7955L42.5128 14.1136C43.3158 14.2992 43.9143 14.5852 44.3082 14.9716C44.7022 15.358 44.8991 15.8598 44.8991 16.4773C44.8991 17 44.7476 17.4659 44.4446 17.875C44.1454 18.2803 43.7268 18.5985 43.1889 18.8295C42.6548 19.0606 42.0355 19.1761 41.331 19.1761C40.3537 19.1761 39.5563 18.9678 38.9389 18.5511C38.3215 18.1307 37.9427 17.5341 37.8026 16.7614L39.4446 16.5114C39.5469 16.9394 39.7571 17.2633 40.0753 17.483C40.3935 17.6989 40.8082 17.8068 41.3196 17.8068C41.8764 17.8068 42.3215 17.6913 42.6548 17.4602C42.9882 17.2254 43.1548 16.9394 43.1548 16.6023C43.1548 16.3295 43.0526 16.1004 42.848 15.9148C42.6473 15.7292 42.3385 15.589 41.9219 15.4943L40.4446 15.1705C39.6302 14.9848 39.0279 14.6894 38.6378 14.2841C38.2514 13.8788 38.0582 13.3655 38.0582 12.7443C38.0582 12.2292 38.2022 11.7784 38.4901 11.392C38.7779 11.0057 39.1757 10.7045 39.6832 10.4886C40.1908 10.2689 40.7723 10.1591 41.4276 10.1591C42.3707 10.1591 43.1132 10.3636 43.6548 10.7727C44.1965 11.178 44.5545 11.7216 44.7287 12.4034ZM48.4659 13.8182V19H46.767V7.36364H48.4432V11.6932H48.5511C48.7557 11.2235 49.0682 10.8504 49.4886 10.5739C49.9091 10.2973 50.4583 10.1591 51.1364 10.1591C51.7348 10.1591 52.2576 10.2822 52.7045 10.5284C53.1553 10.7746 53.5038 11.142 53.75 11.6307C54 12.1155 54.125 12.7216 54.125 13.4489V19H52.4261V13.6534C52.4261 13.0133 52.2614 12.517 51.9318 12.1648C51.6023 11.8087 51.1439 11.6307 50.5568 11.6307C50.1553 11.6307 49.7955 11.7159 49.4773 11.8864C49.1629 12.0568 48.9148 12.3068 48.733 12.6364C48.5549 12.9621 48.4659 13.3561 48.4659 13.8182ZM58.6023 17.4091L58.517 18.0284C58.4602 18.483 58.3636 18.9564 58.2273 19.4489C58.0947 19.9451 57.9564 20.4053 57.8125 20.8295C57.6723 21.2538 57.5568 21.5909 57.4659 21.8409H56.2614C56.3106 21.6061 56.3788 21.2879 56.4659 20.8864C56.553 20.4886 56.6383 20.0436 56.7216 19.5511C56.8049 19.0587 56.8674 18.5568 56.9091 18.0455L56.9659 17.4091H58.6023ZM72.6676 7.36364H74.429V15.017C74.429 15.8314 74.2377 16.553 73.8551 17.1818C73.4725 17.8068 72.9347 18.2992 72.2415 18.6591C71.5483 19.0152 70.7358 19.1932 69.804 19.1932C68.8759 19.1932 68.0653 19.0152 67.3722 18.6591C66.679 18.2992 66.1411 17.8068 65.7585 17.1818C65.3759 16.553 65.1847 15.8314 65.1847 15.017V7.36364H66.9403V14.875C66.9403 15.4015 67.0559 15.8693 67.2869 16.2784C67.5218 16.6875 67.8532 17.0095 68.2812 17.2443C68.7093 17.4754 69.2169 17.5909 69.804 17.5909C70.3949 17.5909 70.9044 17.4754 71.3324 17.2443C71.7642 17.0095 72.0938 16.6875 72.321 16.2784C72.5521 15.8693 72.6676 15.4015 72.6676 14.875V7.36364ZM83.3281 10.4205C83.2675 9.88258 83.0175 9.46591 82.5781 9.17045C82.1387 8.87121 81.5857 8.72159 80.919 8.72159C80.4418 8.72159 80.0289 8.79735 79.6804 8.94886C79.3319 9.09659 79.0611 9.30114 78.8679 9.5625C78.6785 9.82008 78.5838 10.1136 78.5838 10.4432C78.5838 10.7197 78.6482 10.9583 78.777 11.1591C78.9096 11.3598 79.0819 11.5284 79.294 11.6648C79.5099 11.7973 79.741 11.9091 79.9872 12C80.2334 12.0871 80.4702 12.1591 80.6974 12.2159L81.8338 12.5114C82.205 12.6023 82.5857 12.7254 82.9759 12.8807C83.366 13.036 83.7277 13.2405 84.0611 13.4943C84.3944 13.7481 84.6634 14.0625 84.8679 14.4375C85.0762 14.8125 85.1804 15.2614 85.1804 15.7841C85.1804 16.4432 85.0099 17.0284 84.669 17.5398C84.3319 18.0511 83.8414 18.4545 83.1974 18.75C82.5573 19.0455 81.7827 19.1932 80.8736 19.1932C80.0024 19.1932 79.2486 19.0549 78.6122 18.7784C77.9759 18.5019 77.4777 18.1098 77.1179 17.6023C76.758 17.0909 76.5592 16.4848 76.5213 15.7841H78.2827C78.3168 16.2045 78.4531 16.5549 78.6918 16.8352C78.9342 17.1117 79.2429 17.3182 79.6179 17.4545C79.9967 17.5871 80.4115 17.6534 80.8622 17.6534C81.3584 17.6534 81.7997 17.5758 82.1861 17.4205C82.5762 17.2614 82.883 17.0417 83.1065 16.7614C83.33 16.4773 83.4418 16.1458 83.4418 15.767C83.4418 15.4223 83.3433 15.1402 83.1463 14.9205C82.9531 14.7008 82.6899 14.5189 82.3565 14.375C82.027 14.2311 81.6539 14.1042 81.2372 13.9943L79.8622 13.6193C78.9304 13.3655 78.1918 12.9924 77.6463 12.5C77.1046 12.0076 76.8338 11.3561 76.8338 10.5455C76.8338 9.875 77.0156 9.28977 77.3793 8.78977C77.7429 8.28977 78.2353 7.90151 78.8565 7.625C79.4777 7.3447 80.1785 7.20455 80.9588 7.20455C81.7467 7.20455 82.4418 7.3428 83.044 7.61932C83.6501 7.89583 84.1274 8.27652 84.4759 8.76136C84.8243 9.24242 85.0062 9.79545 85.0213 10.4205H83.3281ZM91.0455 19H87.2784V7.36364H91.1648C92.3049 7.36364 93.2841 7.59659 94.1023 8.0625C94.9205 8.52462 95.5473 9.18939 95.983 10.0568C96.4223 10.9205 96.642 11.9564 96.642 13.1648C96.642 14.3769 96.4205 15.4186 95.9773 16.2898C95.5379 17.161 94.9015 17.8314 94.0682 18.3011C93.2348 18.767 92.2273 19 91.0455 19ZM89.0341 17.4659H90.9489C91.8352 17.4659 92.572 17.2992 93.1591 16.9659C93.7462 16.6288 94.1856 16.142 94.4773 15.5057C94.7689 14.8655 94.9148 14.0852 94.9148 13.1648C94.9148 12.2519 94.7689 11.4773 94.4773 10.8409C94.1894 10.2045 93.7595 9.72159 93.1875 9.39205C92.6155 9.0625 91.9053 8.89773 91.0568 8.89773H89.0341V17.4659Z" fill="#1C1C1C"/>
<path d="M116.59 8.29504L112 12.875L107.41 8.29504L106 9.70504L112 15.705L118 9.70504L116.59 8.29504Z" fill="#8B96A5"/>
</svg>
