<svg width="667" height="42" viewBox="0 0 667 42" fill="none" xmlns="http://www.w3.org/2000/svg">
<rect x="0.5" y="0.5" width="666" height="41" rx="6.5" fill="#D9D9D9" stroke="#0D6EFD"/>
<path d="M565.5 1.5V40.5H421.5V1.5H565.5Z" fill="white" stroke="#0D6EFD"/>
<path d="M432.886 27H431.409L435.682 15.3636H437.136L441.409 27H439.932L436.455 17.2045H436.364L432.886 27ZM433.432 22.4545H439.386V23.7045H433.432V22.4545ZM444.381 15.3636V27H443.04V15.3636H444.381ZM448.178 15.3636V27H446.837V15.3636H448.178ZM458.679 27.1818C457.861 27.1818 457.156 26.9886 456.565 26.6023C455.974 26.2159 455.52 25.6837 455.202 25.0057C454.884 24.3277 454.724 23.553 454.724 22.6818C454.724 21.7955 454.887 21.0133 455.213 20.3352C455.543 19.6534 456.001 19.1212 456.588 18.7386C457.179 18.3523 457.868 18.1591 458.656 18.1591C459.27 18.1591 459.823 18.2727 460.315 18.5C460.808 18.7273 461.211 19.0455 461.526 19.4545C461.84 19.8636 462.035 20.3409 462.111 20.8864H460.77C460.668 20.4886 460.44 20.1364 460.088 19.8295C459.74 19.5189 459.27 19.3636 458.679 19.3636C458.156 19.3636 457.698 19.5 457.304 19.7727C456.914 20.0417 456.609 20.4223 456.389 20.9148C456.173 21.4034 456.065 21.9773 456.065 22.6364C456.065 23.3106 456.171 23.8977 456.384 24.3977C456.599 24.8977 456.902 25.286 457.293 25.5625C457.687 25.839 458.149 25.9773 458.679 25.9773C459.027 25.9773 459.344 25.9167 459.628 25.7955C459.912 25.6742 460.152 25.5 460.349 25.2727C460.546 25.0455 460.687 24.7727 460.77 24.4545H462.111C462.035 24.9697 461.848 25.4337 461.548 25.8466C461.253 26.2557 460.861 26.5814 460.372 26.8239C459.887 27.0625 459.323 27.1818 458.679 27.1818ZM466.639 27.2045C466.086 27.2045 465.584 27.1004 465.134 26.892C464.683 26.6799 464.325 26.375 464.06 25.9773C463.795 25.5758 463.662 25.0909 463.662 24.5227C463.662 24.0227 463.76 23.6174 463.957 23.3068C464.154 22.9924 464.418 22.7462 464.747 22.5682C465.077 22.3902 465.44 22.2576 465.838 22.1705C466.24 22.0795 466.643 22.0076 467.048 21.9545C467.579 21.8864 468.009 21.8352 468.338 21.8011C468.671 21.7633 468.914 21.7008 469.065 21.6136C469.221 21.5265 469.298 21.375 469.298 21.1591V21.1136C469.298 20.553 469.145 20.1174 468.838 19.8068C468.535 19.4962 468.075 19.3409 467.457 19.3409C466.817 19.3409 466.315 19.4811 465.952 19.7614C465.588 20.0417 465.332 20.3409 465.185 20.6591L463.912 20.2045C464.139 19.6742 464.442 19.2614 464.821 18.9659C465.204 18.6667 465.62 18.4583 466.071 18.3409C466.526 18.2197 466.973 18.1591 467.412 18.1591C467.692 18.1591 468.014 18.1932 468.378 18.2614C468.745 18.3258 469.099 18.4602 469.44 18.6648C469.785 18.8693 470.071 19.178 470.298 19.5909C470.526 20.0038 470.639 20.5568 470.639 21.25V27H469.298V25.8182H469.23C469.139 26.0076 468.988 26.2102 468.776 26.4261C468.563 26.642 468.281 26.8258 467.929 26.9773C467.577 27.1288 467.147 27.2045 466.639 27.2045ZM466.844 26C467.374 26 467.821 25.8958 468.185 25.6875C468.552 25.4792 468.829 25.2102 469.014 24.8807C469.204 24.5511 469.298 24.2045 469.298 23.8409V22.6136C469.241 22.6818 469.116 22.7443 468.923 22.8011C468.734 22.8542 468.514 22.9015 468.264 22.9432C468.018 22.9811 467.777 23.0152 467.543 23.0455C467.312 23.072 467.124 23.0947 466.98 23.1136C466.632 23.1591 466.306 23.233 466.003 23.3352C465.704 23.4337 465.461 23.5833 465.276 23.7841C465.094 23.9811 465.003 24.25 465.003 24.5909C465.003 25.0568 465.175 25.4091 465.52 25.6477C465.868 25.8826 466.31 26 466.844 26ZM476.882 18.2727V19.4091H472.359V18.2727H476.882ZM473.678 16.1818H475.018V24.5C475.018 24.8788 475.073 25.1629 475.183 25.3523C475.297 25.5379 475.441 25.6629 475.615 25.7273C475.793 25.7879 475.981 25.8182 476.178 25.8182C476.325 25.8182 476.446 25.8106 476.541 25.7955C476.636 25.7765 476.712 25.7614 476.768 25.75L477.041 26.9545C476.95 26.9886 476.823 27.0227 476.661 27.0568C476.498 27.0947 476.291 27.1136 476.041 27.1136C475.662 27.1136 475.291 27.0322 474.928 26.8693C474.568 26.7064 474.268 26.4583 474.03 26.125C473.795 25.7917 473.678 25.3712 473.678 24.8636V16.1818ZM482.464 27.1818C481.624 27.1818 480.898 26.9962 480.288 26.625C479.682 26.25 479.214 25.7273 478.885 25.0568C478.559 24.3826 478.396 23.5985 478.396 22.7045C478.396 21.8106 478.559 21.0227 478.885 20.3409C479.214 19.6553 479.673 19.1212 480.26 18.7386C480.851 18.3523 481.54 18.1591 482.328 18.1591C482.783 18.1591 483.232 18.2348 483.675 18.3864C484.118 18.5379 484.521 18.7841 484.885 19.125C485.249 19.4621 485.538 19.9091 485.754 20.4659C485.97 21.0227 486.078 21.7083 486.078 22.5227V23.0909H479.351V21.9318H484.714C484.714 21.4394 484.616 21 484.419 20.6136C484.226 20.2273 483.949 19.9223 483.589 19.6989C483.233 19.4754 482.813 19.3636 482.328 19.3636C481.794 19.3636 481.332 19.4962 480.942 19.7614C480.555 20.0227 480.258 20.3636 480.05 20.7841C479.841 21.2045 479.737 21.6553 479.737 22.1364V22.9091C479.737 23.5682 479.851 24.1269 480.078 24.5852C480.309 25.0398 480.629 25.3864 481.038 25.625C481.447 25.8598 481.923 25.9773 482.464 25.9773C482.817 25.9773 483.135 25.928 483.419 25.8295C483.707 25.7273 483.955 25.5758 484.163 25.375C484.372 25.1705 484.533 24.9167 484.646 24.6136L485.942 24.9773C485.805 25.4167 485.576 25.803 485.254 26.1364C484.932 26.4659 484.535 26.7235 484.061 26.9091C483.588 27.0909 483.055 27.1818 482.464 27.1818ZM491.641 30.4545C490.993 30.4545 490.436 30.3712 489.97 30.2045C489.504 30.0417 489.116 29.8258 488.805 29.5568C488.499 29.2917 488.254 29.0076 488.072 28.7045L489.141 27.9545C489.262 28.1136 489.415 28.2955 489.601 28.5C489.786 28.7083 490.04 28.8883 490.362 29.0398C490.688 29.1951 491.114 29.2727 491.641 29.2727C492.345 29.2727 492.927 29.1023 493.385 28.7614C493.843 28.4205 494.072 27.8864 494.072 27.1591V25.3864H493.959C493.86 25.5455 493.72 25.7424 493.538 25.9773C493.36 26.2083 493.103 26.4148 492.766 26.5966C492.432 26.7746 491.982 26.8636 491.413 26.8636C490.709 26.8636 490.076 26.697 489.516 26.3636C488.959 26.0303 488.518 25.5455 488.192 24.9091C487.87 24.2727 487.709 23.5 487.709 22.5909C487.709 21.697 487.866 20.9186 488.18 20.2557C488.495 19.589 488.932 19.0739 489.493 18.7102C490.054 18.3428 490.701 18.1591 491.436 18.1591C492.004 18.1591 492.455 18.2538 492.788 18.4432C493.125 18.6288 493.383 18.8409 493.561 19.0795C493.743 19.3144 493.883 19.5076 493.982 19.6591H494.118V18.2727H495.413V27.25C495.413 28 495.243 28.6098 494.902 29.0795C494.565 29.553 494.11 29.8996 493.538 30.1193C492.97 30.3428 492.338 30.4545 491.641 30.4545ZM491.595 25.6591C492.133 25.6591 492.588 25.536 492.959 25.2898C493.33 25.0436 493.612 24.6894 493.805 24.2273C493.999 23.7652 494.095 23.2121 494.095 22.5682C494.095 21.9394 494 21.3845 493.811 20.9034C493.622 20.4223 493.341 20.0455 492.97 19.7727C492.599 19.5 492.141 19.3636 491.595 19.3636C491.027 19.3636 490.554 19.5076 490.175 19.7955C489.8 20.0833 489.518 20.4697 489.328 20.9545C489.143 21.4394 489.05 21.9773 489.05 22.5682C489.05 23.1742 489.144 23.7102 489.334 24.1761C489.527 24.6383 489.811 25.0019 490.186 25.267C490.565 25.5284 491.035 25.6591 491.595 25.6591ZM501.413 27.1818C500.625 27.1818 499.934 26.9943 499.339 26.6193C498.749 26.2443 498.286 25.7197 497.953 25.0455C497.624 24.3712 497.459 23.5833 497.459 22.6818C497.459 21.7727 497.624 20.9792 497.953 20.3011C498.286 19.6231 498.749 19.0966 499.339 18.7216C499.934 18.3466 500.625 18.1591 501.413 18.1591C502.201 18.1591 502.891 18.3466 503.482 18.7216C504.076 19.0966 504.538 19.6231 504.868 20.3011C505.201 20.9792 505.368 21.7727 505.368 22.6818C505.368 23.5833 505.201 24.3712 504.868 25.0455C504.538 25.7197 504.076 26.2443 503.482 26.6193C502.891 26.9943 502.201 27.1818 501.413 27.1818ZM501.413 25.9773C502.012 25.9773 502.504 25.8239 502.891 25.517C503.277 25.2102 503.563 24.8068 503.749 24.3068C503.934 23.8068 504.027 23.2652 504.027 22.6818C504.027 22.0985 503.934 21.5549 503.749 21.0511C503.563 20.5473 503.277 20.1402 502.891 19.8295C502.504 19.5189 502.012 19.3636 501.413 19.3636C500.815 19.3636 500.322 19.5189 499.936 19.8295C499.55 20.1402 499.264 20.5473 499.078 21.0511C498.893 21.5549 498.8 22.0985 498.8 22.6818C498.8 23.2652 498.893 23.8068 499.078 24.3068C499.264 24.8068 499.55 25.2102 499.936 25.517C500.322 25.8239 500.815 25.9773 501.413 25.9773ZM507.415 27V18.2727H508.71V19.5909H508.801C508.96 19.1591 509.248 18.8087 509.665 18.5398C510.081 18.2708 510.551 18.1364 511.074 18.1364C511.172 18.1364 511.295 18.1383 511.443 18.142C511.591 18.1458 511.703 18.1515 511.778 18.1591V19.5227C511.733 19.5114 511.629 19.4943 511.466 19.4716C511.307 19.4451 511.138 19.4318 510.96 19.4318C510.536 19.4318 510.157 19.5208 509.824 19.6989C509.494 19.8731 509.233 20.1155 509.04 20.4261C508.85 20.733 508.756 21.0833 508.756 21.4773V27H507.415ZM514.497 30.2727C514.27 30.2727 514.067 30.2538 513.889 30.2159C513.711 30.1818 513.588 30.1477 513.52 30.1136L513.861 28.9318C514.187 29.0152 514.474 29.0455 514.724 29.0227C514.974 29 515.196 28.8883 515.389 28.6875C515.586 28.4905 515.766 28.1705 515.929 27.7273L516.179 27.0455L512.952 18.2727H514.406L516.815 25.2273H516.906L519.315 18.2727H520.77L517.065 28.2727C516.899 28.7235 516.692 29.0966 516.446 29.392C516.2 29.6913 515.914 29.9129 515.588 30.0568C515.266 30.2008 514.902 30.2727 514.497 30.2727Z" fill="#1C1C1C"/>
<path d="M551.59 17.295L547 21.875L542.41 17.295L541 18.705L547 24.705L553 18.705L551.59 17.295Z" fill="#8B96A5"/>
<path d="M7 1.5H421.5V40.5H7C3.96243 40.5 1.5 38.0376 1.5 35V7C1.5 3.96243 3.96243 1.5 7 1.5Z" fill="white" stroke="#0D6EFD"/>
<path d="M18.7727 18.2727C18.7045 17.697 18.428 17.25 17.9432 16.9318C17.4583 16.6136 16.8636 16.4545 16.1591 16.4545C15.6439 16.4545 15.1932 16.5379 14.8068 16.7045C14.4242 16.8712 14.125 17.1004 13.9091 17.392C13.697 17.6837 13.5909 18.0152 13.5909 18.3864C13.5909 18.697 13.6648 18.964 13.8125 19.1875C13.964 19.4072 14.1572 19.5909 14.392 19.7386C14.6269 19.8826 14.8731 20.0019 15.1307 20.0966C15.3883 20.1875 15.625 20.2614 15.8409 20.3182L17.0227 20.6364C17.3258 20.7159 17.6629 20.8258 18.0341 20.9659C18.4091 21.1061 18.767 21.2973 19.108 21.5398C19.4527 21.7784 19.7367 22.0852 19.9602 22.4602C20.1837 22.8352 20.2955 23.2955 20.2955 23.8409C20.2955 24.4697 20.1307 25.0379 19.8011 25.5455C19.4754 26.053 18.9981 26.4564 18.3693 26.7557C17.7443 27.0549 16.9848 27.2045 16.0909 27.2045C15.2576 27.2045 14.536 27.0701 13.9261 26.8011C13.3201 26.5322 12.8428 26.1572 12.4943 25.6761C12.1496 25.1951 11.9545 24.6364 11.9091 24H13.3636C13.4015 24.4394 13.5492 24.803 13.8068 25.0909C14.0682 25.375 14.3977 25.5871 14.7955 25.7273C15.197 25.8636 15.6288 25.9318 16.0909 25.9318C16.6288 25.9318 17.1117 25.8447 17.5398 25.6705C17.9678 25.4924 18.3068 25.2462 18.5568 24.9318C18.8068 24.6136 18.9318 24.2424 18.9318 23.8182C18.9318 23.4318 18.8239 23.1174 18.608 22.875C18.392 22.6326 18.108 22.4356 17.7557 22.2841C17.4034 22.1326 17.0227 22 16.6136 21.8864L15.1818 21.4773C14.2727 21.2159 13.553 20.8428 13.0227 20.358C12.4924 19.8731 12.2273 19.2386 12.2273 18.4545C12.2273 17.803 12.4034 17.2348 12.7557 16.75C13.1117 16.2614 13.589 15.8826 14.1875 15.6136C14.7898 15.3409 15.4621 15.2045 16.2045 15.2045C16.9545 15.2045 17.6212 15.339 18.2045 15.608C18.7879 15.8731 19.25 16.2367 19.5909 16.6989C19.9356 17.161 20.1174 17.6856 20.1364 18.2727H18.7727ZM26.0895 27.1818C25.2486 27.1818 24.5232 26.9962 23.9134 26.625C23.3073 26.25 22.8395 25.7273 22.5099 25.0568C22.1842 24.3826 22.0213 23.5985 22.0213 22.7045C22.0213 21.8106 22.1842 21.0227 22.5099 20.3409C22.8395 19.6553 23.2978 19.1212 23.8849 18.7386C24.4759 18.3523 25.1652 18.1591 25.9531 18.1591C26.4077 18.1591 26.8565 18.2348 27.2997 18.3864C27.7429 18.5379 28.1463 18.7841 28.5099 19.125C28.8736 19.4621 29.1634 19.9091 29.3793 20.4659C29.5952 21.0227 29.7031 21.7083 29.7031 22.5227V23.0909H22.9759V21.9318H28.3395C28.3395 21.4394 28.241 21 28.044 20.6136C27.8509 20.2273 27.5743 19.9223 27.2145 19.6989C26.8584 19.4754 26.438 19.3636 25.9531 19.3636C25.419 19.3636 24.9569 19.4962 24.5668 19.7614C24.1804 20.0227 23.883 20.3636 23.6747 20.7841C23.4664 21.2045 23.3622 21.6553 23.3622 22.1364V22.9091C23.3622 23.5682 23.4759 24.1269 23.7031 24.5852C23.9342 25.0398 24.2543 25.3864 24.6634 25.625C25.0724 25.8598 25.5478 25.9773 26.0895 25.9773C26.4418 25.9773 26.7599 25.928 27.044 25.8295C27.3319 25.7273 27.58 25.5758 27.7884 25.375C27.9967 25.1705 28.1577 24.9167 28.2713 24.6136L29.5668 24.9773C29.4304 25.4167 29.2012 25.803 28.8793 26.1364C28.5573 26.4659 28.1596 26.7235 27.6861 26.9091C27.2126 27.0909 26.6804 27.1818 26.0895 27.1818ZM34.3111 27.2045C33.758 27.2045 33.2562 27.1004 32.8054 26.892C32.3546 26.6799 31.9967 26.375 31.7315 25.9773C31.4664 25.5758 31.3338 25.0909 31.3338 24.5227C31.3338 24.0227 31.4323 23.6174 31.6293 23.3068C31.8262 22.9924 32.0895 22.7462 32.419 22.5682C32.7486 22.3902 33.1122 22.2576 33.5099 22.1705C33.9115 22.0795 34.3149 22.0076 34.7202 21.9545C35.2505 21.8864 35.6804 21.8352 36.0099 21.8011C36.3433 21.7633 36.5857 21.7008 36.7372 21.6136C36.8925 21.5265 36.9702 21.375 36.9702 21.1591V21.1136C36.9702 20.553 36.8168 20.1174 36.5099 19.8068C36.2069 19.4962 35.7467 19.3409 35.1293 19.3409C34.4891 19.3409 33.9872 19.4811 33.6236 19.7614C33.2599 20.0417 33.0043 20.3409 32.8565 20.6591L31.5838 20.2045C31.8111 19.6742 32.1141 19.2614 32.4929 18.9659C32.8755 18.6667 33.2921 18.4583 33.7429 18.3409C34.1974 18.2197 34.6444 18.1591 35.0838 18.1591C35.3641 18.1591 35.6861 18.1932 36.0497 18.2614C36.4171 18.3258 36.7713 18.4602 37.1122 18.6648C37.4569 18.8693 37.7429 19.178 37.9702 19.5909C38.1974 20.0038 38.3111 20.5568 38.3111 21.25V27H36.9702V25.8182H36.902C36.8111 26.0076 36.6596 26.2102 36.4474 26.4261C36.2353 26.642 35.9531 26.8258 35.6009 26.9773C35.2486 27.1288 34.8187 27.2045 34.3111 27.2045ZM34.5156 26C35.0459 26 35.4929 25.8958 35.8565 25.6875C36.224 25.4792 36.5005 25.2102 36.6861 24.8807C36.8755 24.5511 36.9702 24.2045 36.9702 23.8409V22.6136C36.9134 22.6818 36.7884 22.7443 36.5952 22.8011C36.4058 22.8542 36.1861 22.9015 35.9361 22.9432C35.6899 22.9811 35.4493 23.0152 35.2145 23.0455C34.9834 23.072 34.7959 23.0947 34.652 23.1136C34.3035 23.1591 33.9777 23.233 33.6747 23.3352C33.3755 23.4337 33.133 23.5833 32.9474 23.7841C32.7656 23.9811 32.6747 24.25 32.6747 24.5909C32.6747 25.0568 32.8471 25.4091 33.1918 25.6477C33.5402 25.8826 33.9815 26 34.5156 26ZM40.7585 27V18.2727H42.054V19.5909H42.1449C42.304 19.1591 42.5919 18.8087 43.0085 18.5398C43.4252 18.2708 43.8949 18.1364 44.4176 18.1364C44.5161 18.1364 44.6392 18.1383 44.7869 18.142C44.9347 18.1458 45.0464 18.1515 45.1222 18.1591V19.5227C45.0767 19.5114 44.9725 19.4943 44.8097 19.4716C44.6506 19.4451 44.482 19.4318 44.304 19.4318C43.8797 19.4318 43.5009 19.5208 43.1676 19.6989C42.8381 19.8731 42.5767 20.1155 42.3835 20.4261C42.1941 20.733 42.0994 21.0833 42.0994 21.4773V27H40.7585ZM49.9915 27.1818C49.1733 27.1818 48.4688 26.9886 47.8778 26.6023C47.2869 26.2159 46.8324 25.6837 46.5142 25.0057C46.196 24.3277 46.0369 23.553 46.0369 22.6818C46.0369 21.7955 46.1998 21.0133 46.5256 20.3352C46.8551 19.6534 47.3134 19.1212 47.9006 18.7386C48.4915 18.3523 49.1809 18.1591 49.9688 18.1591C50.5824 18.1591 51.1354 18.2727 51.6278 18.5C52.1203 18.7273 52.5237 19.0455 52.8381 19.4545C53.1525 19.8636 53.3475 20.3409 53.4233 20.8864H52.0824C51.9801 20.4886 51.7528 20.1364 51.4006 19.8295C51.0521 19.5189 50.5824 19.3636 49.9915 19.3636C49.4688 19.3636 49.0104 19.5 48.6165 19.7727C48.2263 20.0417 47.9214 20.4223 47.7017 20.9148C47.4858 21.4034 47.3778 21.9773 47.3778 22.6364C47.3778 23.3106 47.4839 23.8977 47.696 24.3977C47.9119 24.8977 48.215 25.286 48.6051 25.5625C48.9991 25.839 49.4612 25.9773 49.9915 25.9773C50.34 25.9773 50.6562 25.9167 50.9403 25.7955C51.2244 25.6742 51.465 25.5 51.6619 25.2727C51.8589 25.0455 51.9991 24.7727 52.0824 24.4545H53.4233C53.3475 24.9697 53.16 25.4337 52.8608 25.8466C52.5653 26.2557 52.1733 26.5814 51.6847 26.8239C51.1998 27.0625 50.6354 27.1818 49.9915 27.1818ZM56.7244 21.75V27H55.3835V15.3636H56.7244V19.6364H56.8381C57.0426 19.1856 57.3494 18.8277 57.7585 18.5625C58.1714 18.2936 58.7206 18.1591 59.4062 18.1591C60.0009 18.1591 60.5218 18.2784 60.9688 18.517C61.4157 18.7519 61.7623 19.1136 62.0085 19.6023C62.2585 20.0871 62.3835 20.7045 62.3835 21.4545V27H61.0426V21.5455C61.0426 20.8523 60.8627 20.3163 60.5028 19.9375C60.1468 19.5549 59.6525 19.3636 59.0199 19.3636C58.5805 19.3636 58.1866 19.4564 57.8381 19.642C57.4934 19.8277 57.2206 20.0985 57.0199 20.4545C56.8229 20.8106 56.7244 21.2424 56.7244 21.75Z" fill="#8B96A5"/>
<path fill-rule="evenodd" clip-rule="evenodd" d="M566 1H660C663.314 1 666 3.68629 666 7V35C666 38.3137 663.314 41 660 41H566V1Z" fill="url(#paint0_linear_1_1075)"/>
<path d="M596.961 18.4205C596.9 17.8826 596.65 17.4659 596.211 17.1705C595.772 16.8712 595.219 16.7216 594.552 16.7216C594.075 16.7216 593.662 16.7973 593.313 16.9489C592.965 17.0966 592.694 17.3011 592.501 17.5625C592.311 17.8201 592.217 18.1136 592.217 18.4432C592.217 18.7197 592.281 18.9583 592.41 19.1591C592.542 19.3598 592.715 19.5284 592.927 19.6648C593.143 19.7973 593.374 19.9091 593.62 20C593.866 20.0871 594.103 20.1591 594.33 20.2159L595.467 20.5114C595.838 20.6023 596.219 20.7254 596.609 20.8807C596.999 21.036 597.361 21.2405 597.694 21.4943C598.027 21.7481 598.296 22.0625 598.501 22.4375C598.709 22.8125 598.813 23.2614 598.813 23.7841C598.813 24.4432 598.643 25.0284 598.302 25.5398C597.965 26.0511 597.474 26.4545 596.83 26.75C596.19 27.0455 595.415 27.1932 594.506 27.1932C593.635 27.1932 592.881 27.0549 592.245 26.7784C591.609 26.5019 591.111 26.1098 590.751 25.6023C590.391 25.0909 590.192 24.4848 590.154 23.7841H591.915C591.95 24.2045 592.086 24.5549 592.325 24.8352C592.567 25.1117 592.876 25.3182 593.251 25.4545C593.629 25.5871 594.044 25.6534 594.495 25.6534C594.991 25.6534 595.433 25.5758 595.819 25.4205C596.209 25.2614 596.516 25.0417 596.739 24.7614C596.963 24.4773 597.075 24.1458 597.075 23.767C597.075 23.4223 596.976 23.1402 596.779 22.9205C596.586 22.7008 596.323 22.5189 595.989 22.375C595.66 22.2311 595.287 22.1042 594.87 21.9943L593.495 21.6193C592.563 21.3655 591.825 20.9924 591.279 20.5C590.737 20.0076 590.467 19.3561 590.467 18.5455C590.467 17.875 590.648 17.2898 591.012 16.7898C591.376 16.2898 591.868 15.9015 592.489 15.625C593.111 15.3447 593.811 15.2045 594.592 15.2045C595.379 15.2045 596.075 15.3428 596.677 15.6193C597.283 15.8958 597.76 16.2765 598.109 16.7614C598.457 17.2424 598.639 17.7955 598.654 18.4205H596.961ZM604.536 27.1761C603.676 27.1761 602.936 26.9924 602.315 26.625C601.697 26.2538 601.22 25.733 600.883 25.0625C600.549 24.3883 600.383 23.5985 600.383 22.6932C600.383 21.7992 600.549 21.0114 600.883 20.3295C601.22 19.6477 601.69 19.1155 602.292 18.733C602.898 18.3504 603.606 18.1591 604.417 18.1591C604.909 18.1591 605.387 18.2405 605.849 18.4034C606.311 18.5663 606.726 18.822 607.093 19.1705C607.46 19.5189 607.75 19.9716 607.962 20.5284C608.174 21.0814 608.281 21.7538 608.281 22.5455V23.1477H601.343V21.875H606.616C606.616 21.428 606.525 21.0322 606.343 20.6875C606.161 20.339 605.906 20.0644 605.576 19.8636C605.25 19.6629 604.868 19.5625 604.428 19.5625C603.951 19.5625 603.534 19.6799 603.178 19.9148C602.826 20.1458 602.553 20.4489 602.36 20.8239C602.171 21.1951 602.076 21.5985 602.076 22.0341V23.0284C602.076 23.6117 602.178 24.108 602.383 24.517C602.591 24.9261 602.881 25.2386 603.252 25.4545C603.623 25.6667 604.057 25.7727 604.553 25.7727C604.875 25.7727 605.169 25.7273 605.434 25.6364C605.699 25.5417 605.928 25.4015 606.121 25.2159C606.315 25.0303 606.462 24.8011 606.565 24.5284L608.173 24.8182C608.044 25.2917 607.813 25.7064 607.479 26.0625C607.15 26.4148 606.735 26.6894 606.235 26.8864C605.739 27.0795 605.173 27.1761 604.536 27.1761ZM612.705 27.1932C612.152 27.1932 611.652 27.0909 611.205 26.8864C610.758 26.678 610.404 26.3769 610.143 25.983C609.885 25.589 609.756 25.1061 609.756 24.5341C609.756 24.0417 609.851 23.6364 610.04 23.3182C610.23 23 610.486 22.7481 610.808 22.5625C611.129 22.3769 611.489 22.2367 611.887 22.142C612.285 22.0473 612.69 21.9754 613.103 21.9261C613.626 21.8655 614.05 21.8163 614.376 21.7784C614.701 21.7367 614.938 21.6705 615.086 21.5795C615.234 21.4886 615.308 21.3409 615.308 21.1364V21.0966C615.308 20.6004 615.167 20.2159 614.887 19.9432C614.611 19.6705 614.198 19.5341 613.648 19.5341C613.076 19.5341 612.626 19.661 612.296 19.9148C611.97 20.1648 611.745 20.4432 611.62 20.75L610.023 20.3864C610.213 19.8561 610.489 19.428 610.853 19.1023C611.22 18.7727 611.643 18.5341 612.12 18.3864C612.597 18.2348 613.099 18.1591 613.626 18.1591C613.974 18.1591 614.344 18.2008 614.734 18.2841C615.128 18.3636 615.495 18.5114 615.836 18.7273C616.181 18.9432 616.463 19.2519 616.683 19.6534C616.902 20.0511 617.012 20.5682 617.012 21.2045V27H615.353V25.8068H615.285C615.175 26.0265 615.01 26.2424 614.79 26.4545C614.571 26.6667 614.289 26.8428 613.944 26.983C613.599 27.1231 613.186 27.1932 612.705 27.1932ZM613.075 25.8295C613.544 25.8295 613.946 25.7367 614.279 25.5511C614.616 25.3655 614.872 25.1231 615.046 24.8239C615.224 24.5208 615.313 24.197 615.313 23.8523V22.7273C615.253 22.7879 615.135 22.8447 614.961 22.8977C614.79 22.947 614.595 22.9905 614.376 23.0284C614.156 23.0625 613.942 23.0947 613.734 23.125C613.525 23.1515 613.351 23.1742 613.211 23.1932C612.881 23.2348 612.58 23.3049 612.308 23.4034C612.039 23.5019 611.823 23.6439 611.66 23.8295C611.501 24.0114 611.421 24.2538 611.421 24.5568C611.421 24.9773 611.576 25.2955 611.887 25.5114C612.198 25.7235 612.594 25.8295 613.075 25.8295ZM619.275 27V18.2727H620.917V19.6591H621.008C621.167 19.1894 621.447 18.8201 621.849 18.5511C622.254 18.2784 622.712 18.142 623.224 18.142C623.33 18.142 623.455 18.1458 623.599 18.1534C623.746 18.161 623.862 18.1705 623.945 18.1818V19.8068C623.877 19.7879 623.756 19.767 623.582 19.7443C623.407 19.7178 623.233 19.7045 623.059 19.7045C622.657 19.7045 622.299 19.7898 621.985 19.9602C621.674 20.1269 621.428 20.3598 621.246 20.6591C621.065 20.9545 620.974 21.2917 620.974 21.6705V27H619.275ZM628.779 27.1761C627.934 27.1761 627.207 26.9848 626.597 26.6023C625.991 26.2159 625.525 25.6837 625.2 25.0057C624.874 24.3277 624.711 23.5511 624.711 22.6761C624.711 21.7898 624.878 21.0076 625.211 20.3295C625.544 19.6477 626.014 19.1155 626.62 18.733C627.226 18.3504 627.94 18.1591 628.762 18.1591C629.425 18.1591 630.016 18.2822 630.535 18.5284C631.054 18.7708 631.472 19.1117 631.79 19.5511C632.112 19.9905 632.304 20.5038 632.364 21.0909H630.711C630.62 20.6818 630.412 20.3295 630.086 20.0341C629.764 19.7386 629.332 19.5909 628.79 19.5909C628.317 19.5909 627.902 19.7159 627.546 19.9659C627.194 20.2121 626.919 20.5644 626.722 21.0227C626.525 21.4773 626.427 22.0152 626.427 22.6364C626.427 23.2727 626.523 23.822 626.717 24.2841C626.91 24.7462 627.183 25.1042 627.535 25.358C627.891 25.6117 628.309 25.7386 628.79 25.7386C629.112 25.7386 629.404 25.6799 629.665 25.5625C629.931 25.4413 630.152 25.2689 630.33 25.0455C630.512 24.822 630.639 24.553 630.711 24.2386H632.364C632.304 24.803 632.12 25.3068 631.813 25.75C631.506 26.1932 631.095 26.5417 630.58 26.7955C630.069 27.0492 629.469 27.1761 628.779 27.1761ZM635.88 21.8182V27H634.181V15.3636H635.857V19.6932H635.965C636.17 19.2235 636.482 18.8504 636.903 18.5739C637.323 18.2973 637.872 18.1591 638.55 18.1591C639.149 18.1591 639.672 18.2822 640.119 18.5284C640.569 18.7746 640.918 19.142 641.164 19.6307C641.414 20.1155 641.539 20.7216 641.539 21.4489V27H639.84V21.6534C639.84 21.0133 639.675 20.517 639.346 20.1648C639.016 19.8087 638.558 19.6307 637.971 19.6307C637.569 19.6307 637.21 19.7159 636.891 19.8864C636.577 20.0568 636.329 20.3068 636.147 20.6364C635.969 20.9621 635.88 21.3561 635.88 21.8182Z" fill="white"/>
<defs>
<linearGradient id="paint0_linear_1_1075" x1="616" y1="1" x2="616" y2="41" gradientUnits="userSpaceOnUse">
<stop stop-color="#127FFF"/>
<stop offset="1" stop-color="#0067FF"/>
</linearGradient>
</defs>
</svg>
