<svg width="22" height="22" viewBox="0 0 22 22" fill="none" xmlns="http://www.w3.org/2000/svg">
<path d="M15.1675 11.9167C15.855 11.9167 16.46 11.5408 16.7716 10.9725L20.0533 5.02334C20.3925 4.41834 19.9525 3.66668 19.2558 3.66668H5.68912L4.82746 1.83334H1.82996V3.66668H3.66329L6.96329 10.6242L5.72579 12.8608C5.05662 14.0892 5.93662 15.5833 7.32996 15.5833H18.33V13.75H7.32996L8.33829 11.9167H15.1675ZM6.55996 5.50001H17.6975L15.1675 10.0833H8.73246L6.55996 5.50001ZM7.32996 16.5C6.32162 16.5 5.50579 17.325 5.50579 18.3333C5.50579 19.3417 6.32162 20.1667 7.32996 20.1667C8.33829 20.1667 9.16329 19.3417 9.16329 18.3333C9.16329 17.325 8.33829 16.5 7.32996 16.5ZM16.4966 16.5C15.4883 16.5 14.6725 17.325 14.6725 18.3333C14.6725 19.3417 15.4883 20.1667 16.4966 20.1667C17.505 20.1667 18.33 19.3417 18.33 18.3333C18.33 17.325 17.505 16.5 16.4966 16.5Z" fill="#0D6EFD"/>
</svg>
