<svg width="80" height="19" viewBox="0 0 80 19" fill="none" xmlns="http://www.w3.org/2000/svg">
<path d="M20.9609 6.42045C20.9003 5.88258 20.6503 5.46591 20.2109 5.17045C19.7715 4.87121 19.2185 4.72159 18.5518 4.72159C18.0746 4.72159 17.6617 4.79735 17.3132 4.94886C16.9647 5.09659 16.6939 5.30114 16.5007 5.5625C16.3113 5.82008 16.2166 6.11364 16.2166 6.44318C16.2166 6.7197 16.281 6.95833 16.4098 7.15909C16.5424 7.35985 16.7147 7.52841 16.9268 7.66477C17.1428 7.79735 17.3738 7.90909 17.62 8C17.8662 8.08712 18.103 8.15909 18.3303 8.21591L19.4666 8.51136C19.8378 8.60227 20.2185 8.72538 20.6087 8.88068C20.9988 9.03598 21.3606 9.24053 21.6939 9.49432C22.0272 9.74811 22.2962 10.0625 22.5007 10.4375C22.709 10.8125 22.8132 11.2614 22.8132 11.7841C22.8132 12.4432 22.6428 13.0284 22.3018 13.5398C21.9647 14.0511 21.4742 14.4545 20.8303 14.75C20.1901 15.0455 19.4155 15.1932 18.5064 15.1932C17.6352 15.1932 16.8814 15.0549 16.245 14.7784C15.6087 14.5019 15.1106 14.1098 14.7507 13.6023C14.3909 13.0909 14.192 12.4848 14.1541 11.7841H15.9155C15.9496 12.2045 16.0859 12.5549 16.3246 12.8352C16.567 13.1117 16.8757 13.3182 17.2507 13.4545C17.6295 13.5871 18.0443 13.6534 18.495 13.6534C18.9912 13.6534 19.4325 13.5758 19.8189 13.4205C20.209 13.2614 20.5159 13.0417 20.7393 12.7614C20.9628 12.4773 21.0746 12.1458 21.0746 11.767C21.0746 11.4223 20.9761 11.1402 20.7791 10.9205C20.5859 10.7008 20.3227 10.5189 19.9893 10.375C19.6598 10.2311 19.2867 10.1042 18.87 9.99432L17.495 9.61932C16.5632 9.36553 15.8246 8.99242 15.2791 8.5C14.7375 8.00758 14.4666 7.35606 14.4666 6.54545C14.4666 5.875 14.6484 5.28977 15.0121 4.78977C15.3757 4.28977 15.8681 3.90151 16.4893 3.625C17.1106 3.3447 17.8113 3.20455 18.5916 3.20455C19.3795 3.20455 20.0746 3.3428 20.6768 3.61932C21.2829 3.89583 21.7602 4.27652 22.1087 4.76136C22.4572 5.24242 22.639 5.79545 22.6541 6.42045H20.9609ZM28.5362 15.1761C27.6764 15.1761 26.9358 14.9924 26.3146 14.625C25.6972 14.2538 25.2199 13.733 24.8828 13.0625C24.5495 12.3883 24.3828 11.5985 24.3828 10.6932C24.3828 9.79924 24.5495 9.01136 24.8828 8.32955C25.2199 7.64773 25.6896 7.11553 26.2919 6.73295C26.898 6.35038 27.6063 6.15909 28.4169 6.15909C28.9093 6.15909 29.3866 6.24053 29.8487 6.40341C30.3108 6.56629 30.7256 6.82197 31.093 7.17045C31.4605 7.51894 31.7502 7.97159 31.9624 8.52841C32.1745 9.08144 32.2805 9.75379 32.2805 10.5455V11.1477H25.343V9.875H30.6158C30.6158 9.42803 30.5249 9.0322 30.343 8.6875C30.1612 8.33902 29.9055 8.06439 29.576 7.86364C29.2502 7.66288 28.8677 7.5625 28.4283 7.5625C27.951 7.5625 27.5343 7.67992 27.1783 7.91477C26.826 8.14583 26.5533 8.44886 26.3601 8.82386C26.1707 9.19508 26.076 9.59848 26.076 10.0341V11.0284C26.076 11.6117 26.1783 12.108 26.3828 12.517C26.5911 12.9261 26.8809 13.2386 27.2521 13.4545C27.6233 13.6667 28.0571 13.7727 28.5533 13.7727C28.8752 13.7727 29.1688 13.7273 29.4339 13.6364C29.6991 13.5417 29.9283 13.4015 30.1214 13.2159C30.3146 13.0303 30.4624 12.8011 30.5646 12.5284L32.1726 12.8182C32.0438 13.2917 31.8127 13.7064 31.4794 14.0625C31.1499 14.4148 30.7351 14.6894 30.2351 14.8864C29.7389 15.0795 29.1726 15.1761 28.5362 15.1761ZM36.7053 15.1932C36.1522 15.1932 35.6522 15.0909 35.2053 14.8864C34.7583 14.678 34.4041 14.3769 34.1428 13.983C33.8852 13.589 33.7564 13.1061 33.7564 12.5341C33.7564 12.0417 33.8511 11.6364 34.0405 11.3182C34.2299 11 34.4856 10.7481 34.8075 10.5625C35.1295 10.3769 35.4893 10.2367 35.8871 10.142C36.2848 10.0473 36.6901 9.97538 37.103 9.92614C37.6257 9.86553 38.05 9.81629 38.3757 9.77841C38.7015 9.73674 38.9382 9.67045 39.0859 9.57955C39.2337 9.48864 39.3075 9.34091 39.3075 9.13636V9.09659C39.3075 8.60038 39.1674 8.21591 38.8871 7.94318C38.6106 7.67045 38.1977 7.53409 37.6484 7.53409C37.0765 7.53409 36.6257 7.66098 36.2962 7.91477C35.9704 8.16477 35.745 8.44318 35.62 8.75L34.0234 8.38636C34.2128 7.85606 34.4893 7.42803 34.853 7.10227C35.2204 6.77273 35.6428 6.53409 36.12 6.38636C36.5973 6.23485 37.0992 6.15909 37.6257 6.15909C37.9742 6.15909 38.3435 6.20076 38.7337 6.28409C39.1276 6.36364 39.495 6.51136 39.8359 6.72727C40.1806 6.94318 40.4628 7.25189 40.6825 7.65341C40.9022 8.05114 41.0121 8.56818 41.0121 9.20455V15H39.353V13.8068H39.2848C39.175 14.0265 39.0102 14.2424 38.7905 14.4545C38.5708 14.6667 38.2886 14.8428 37.9439 14.983C37.5992 15.1231 37.1863 15.1932 36.7053 15.1932ZM37.0746 13.8295C37.5443 13.8295 37.9458 13.7367 38.2791 13.5511C38.6162 13.3655 38.8719 13.1231 39.0462 12.8239C39.2242 12.5208 39.3132 12.197 39.3132 11.8523V10.7273C39.2526 10.7879 39.1352 10.8447 38.9609 10.8977C38.7905 10.947 38.5954 10.9905 38.3757 11.0284C38.156 11.0625 37.942 11.0947 37.7337 11.125C37.5253 11.1515 37.3511 11.1742 37.2109 11.1932C36.8814 11.2348 36.5803 11.3049 36.3075 11.4034C36.0386 11.5019 35.8227 11.6439 35.6598 11.8295C35.5007 12.0114 35.4212 12.2538 35.4212 12.5568C35.4212 12.9773 35.5765 13.2955 35.8871 13.5114C36.1977 13.7235 36.5935 13.8295 37.0746 13.8295ZM43.2749 15V6.27273H44.9169V7.65909H45.0078C45.1669 7.18939 45.4472 6.82008 45.8487 6.55114C46.254 6.27841 46.7124 6.14205 47.2237 6.14205C47.3298 6.14205 47.4548 6.14583 47.5987 6.15341C47.7464 6.16098 47.862 6.17045 47.9453 6.18182V7.80682C47.8771 7.78788 47.7559 7.76705 47.5817 7.74432C47.4074 7.7178 47.2332 7.70455 47.0589 7.70455C46.6574 7.70455 46.2995 7.78977 45.9851 7.96023C45.6745 8.12689 45.4283 8.35985 45.2464 8.65909C45.0646 8.95455 44.9737 9.29167 44.9737 9.67045V15H43.2749ZM52.7791 15.1761C51.9344 15.1761 51.2071 14.9848 50.5973 14.6023C49.9912 14.2159 49.5253 13.6837 49.1996 13.0057C48.8738 12.3277 48.7109 11.5511 48.7109 10.6761C48.7109 9.78977 48.8776 9.00758 49.2109 8.32955C49.5443 7.64773 50.014 7.11553 50.62 6.73295C51.2261 6.35038 51.9401 6.15909 52.7621 6.15909C53.425 6.15909 54.0159 6.2822 54.5348 6.52841C55.0537 6.77083 55.4723 7.11174 55.7905 7.55114C56.1125 7.99053 56.3037 8.50379 56.3643 9.09091H54.7109C54.62 8.68182 54.4117 8.32955 54.0859 8.03409C53.764 7.73864 53.3321 7.59091 52.7905 7.59091C52.317 7.59091 51.9022 7.71591 51.5462 7.96591C51.1939 8.21212 50.9193 8.56439 50.7223 9.02273C50.5253 9.47727 50.4268 10.0152 50.4268 10.6364C50.4268 11.2727 50.5234 11.822 50.7166 12.2841C50.9098 12.7462 51.1825 13.1042 51.5348 13.358C51.8909 13.6117 52.3094 13.7386 52.7905 13.7386C53.1125 13.7386 53.4041 13.6799 53.6655 13.5625C53.9306 13.4413 54.1522 13.2689 54.3303 13.0455C54.5121 12.822 54.639 12.553 54.7109 12.2386H56.3643C56.3037 12.803 56.12 13.3068 55.8132 13.75C55.5064 14.1932 55.0954 14.5417 54.5803 14.7955C54.0689 15.0492 53.4685 15.1761 52.7791 15.1761ZM59.88 9.81818V15H58.1811V3.36364H59.8572V7.69318H59.9652C60.1697 7.22348 60.4822 6.85038 60.9027 6.57386C61.3232 6.29735 61.8724 6.15909 62.5504 6.15909C63.1489 6.15909 63.6716 6.2822 64.1186 6.52841C64.5694 6.77462 64.9179 7.14205 65.1641 7.63068C65.4141 8.11553 65.5391 8.72159 65.5391 9.44886V15H63.8402V9.65341C63.8402 9.01326 63.6754 8.51705 63.3459 8.16477C63.0163 7.80871 62.558 7.63068 61.9709 7.63068C61.5694 7.63068 61.2095 7.71591 60.8913 7.88636C60.5769 8.05682 60.3288 8.30682 60.147 8.63636C59.969 8.96212 59.88 9.35606 59.88 9.81818Z" fill="white"/>
</svg>
